<svg class="fill-white" width="24" height="20" viewBox="0 0 24 20" fill="none" xmlns="http://www.w3.org/2000/svg">
<path d="M0 1.66667C0 0.746192 0.671573 0 1.5 0H22.5C23.3284 0 24 0.746192 24 1.66667C24 2.58714 23.3284 3.33333 22.5 3.33333H1.5C0.671573 3.33333 0 2.58714 0 1.66667ZM0 10C0 9.07952 0.671573 8.33333 1.5 8.33333H22.5C23.3284 8.33333 24 9.07952 24 10C24 10.9205 23.3284 11.6667 22.5 11.6667H1.5C0.671573 11.6667 0 10.9205 0 10ZM0 18.3333C0 17.4129 0.671573 16.6667 1.5 16.6667H22.5C23.3284 16.6667 24 17.4129 24 18.3333C24 19.2538 23.3284 20 22.5 20H1.5C0.671573 20 0 19.2538 0 18.3333Z" fill="white"/>
</svg>
