<svg width="272" height="79" viewBox="0 0 272 79" fill="none" xmlns="http://www.w3.org/2000/svg">
<path d="M71.0057 1.04024L0.117676 78.7149H18.2243L23.8337 72.5536C30.3497 66.0656 45.8297 56.9296 69.583 51.5202H43.095L70.015 24.5602L69.583 51.5202V78.7149H78.3603V1.04024H71.0057Z" fill="#0093D6"/>
<path d="M102.66 47.5154C100.472 45.138 95.7095 42.2327 87.7309 48.19L95.7562 37.8354L87.7309 26.5834V48.19V69.8153L81.0122 78.4847V0.766014L111.603 39.878L107.028 45.7794L104.108 49.546L102.66 47.5154Z" fill="#F9A046"/>
<path d="M145.221 28.9521H141.624V3.65206H145.221V28.9521ZM142.455 36.9361L141.584 33.2988C143.481 33.4175 145.3 33.4974 147.039 33.4974C147.988 33.4974 148.461 33.0228 148.461 32.0734V1.00411H152.177V33.0227C152.177 35.6321 150.873 36.9361 148.344 36.9361H142.455ZM134.705 29.0307H127.275V32.8641H134.705V29.0307ZM133.796 7.48678C132.097 6.18144 130.633 5.15343 129.448 4.40409C128.539 5.43076 127.551 6.45878 126.444 7.48678H133.796ZM134.232 14.8788H124.468V16.7761H134.232V14.8788ZM124.467 19.5428C124.467 20.0961 124.428 20.6108 124.428 21.1641H134.232V19.2268H124.467V19.5428ZM138.224 37.1748H134.705V35.7907H127.275V37.2134H123.875V26.3028C123.123 30.4134 121.78 34.0907 119.843 37.2521L116.917 34.6441C119.487 30.7308 120.791 25.7094 120.831 19.5428V12.1508H137.829V23.8508H124.231C124.151 24.6428 124.032 25.3934 123.913 26.1054H138.224V37.1748ZM130.239 1.00411C133.361 2.90144 136.723 5.27341 140.359 8.04008L138.184 10.9254C136.8 9.81875 135.536 8.7921 134.389 7.92143V10.2535H124.981V8.79212C123.203 10.2534 121.227 11.7161 119.052 13.1788L116.877 10.1347C121.304 7.36806 125.02 4.32411 127.985 1.00411H130.239Z" fill="#0093D6"/>
<path d="M191.751 34.169L189.063 36.8583C187.087 34.9197 184.359 32.8637 180.802 30.6503L183.214 28.3183C186.612 30.2957 189.459 32.233 191.751 34.169ZM169.338 9.85832C170.01 10.925 170.643 12.1117 171.235 13.4557H178.43C179.26 12.269 179.971 11.0837 180.604 9.85832H169.338ZM169.338 30.453C166.927 32.905 163.922 35.0383 160.364 36.8583L158.032 33.853C161.511 32.2717 164.475 30.3743 166.847 28.2397L169.338 30.453ZM173.212 0.844986V6.57698H176.494V0.844986H180.13V6.57698H182.896C183.964 4.91698 184.874 3.21699 185.664 1.39832L189.143 2.70232C188.312 4.16499 187.483 5.47032 186.652 6.57698H192.304V9.85832H181.276L184.32 10.925C183.767 11.8343 183.214 12.665 182.58 13.4557H190.487V16.737H176.848V18.9117H188.628V22.033H176.848V24.2077H192.266V27.529H176.848V37.4503H173.054V27.529H157.636V24.2077H173.054V22.033H161.274V18.9117H173.054V16.737H159.415V13.4557H167.322C166.808 12.5063 166.215 11.637 165.583 10.8077L168.152 9.85832H157.598V6.57698H163.211C162.578 5.19432 161.787 3.92765 160.918 2.74365L164.436 1.43832C165.306 2.86232 166.096 4.59965 166.847 6.57698H169.575V0.844986H173.212Z" fill="#0093D6"/>
<path d="M207.765 32.5881H223.695V29.0307H207.765V32.5881ZM223.695 22.3894H207.765V25.7894H223.695V22.3894ZM210.888 4.64009V0.766724H214.681V4.64009H223.457V8.15873H214.681V11.9934H219.347C223.064 9.38412 226.225 6.45877 228.835 3.2961L231.641 5.39205C229.624 7.84271 227.491 10.0161 225.197 11.9934H232.313V15.5507H220.493C220.019 15.8667 219.545 16.1427 219.069 16.4601C217.608 17.3294 215.948 18.2374 214.051 19.1481H227.452V37.4108H223.695V35.9081H207.765V37.4108H203.969V23.4174C201.993 24.1281 199.937 24.8801 197.803 25.6307L196.261 22.1521C202.428 20.7294 208.239 18.5547 213.616 15.5507H196.853V11.9934H210.888V8.15873H200.135V4.64009H210.888Z" fill="#0093D6"/>
<path d="M153.285 75.2733L150.281 78.2773C147.592 75.352 143.837 72.2293 139.014 68.8293L141.742 66.1813C146.289 69.264 150.122 72.268 153.285 75.2733ZM140.556 53.1346H130.278V61.7133H140.556V53.1346ZM126.524 49.4986V41.672H130.278V49.4986H140.556V41.8306H144.313V49.4986H151.229V53.1346H144.313V61.7133H153.166V65.3906H117.668V61.7133H126.524V53.1346H119.645V49.4986H126.524ZM132.294 68.672C129.013 72.348 124.981 75.5493 120.198 78.316L117.59 74.916C122.293 72.3866 126.246 69.4626 129.448 66.1013L132.294 68.672Z" fill="#0093D6"/>
<path d="M184.755 69.8974H181.157V44.5974H184.755V69.8974ZM181.988 77.8813L181.119 74.244C183.015 74.3627 184.835 74.4427 186.572 74.4427C187.521 74.4427 187.996 73.968 187.996 73.0187V41.9494H191.712V73.968C191.712 76.5773 190.407 77.8813 187.877 77.8813H181.988ZM174.239 69.9761H166.808V73.8094H174.239V69.9761ZM173.331 48.432C171.631 47.1267 170.168 46.0987 168.981 45.348C168.072 46.376 167.084 47.404 165.977 48.432H173.331ZM173.765 55.824H164.001V57.7213H173.765V55.824ZM164.001 60.488C164.001 61.0414 163.961 61.556 163.961 62.1094H173.765V60.172H164.001V60.488ZM177.757 78.12H174.239V76.7361H166.808V78.1587H163.408V67.248C162.657 71.3587 161.313 75.036 159.376 78.1973L156.452 75.5893C159.02 71.676 160.325 66.6547 160.364 60.488V53.096H177.363V64.796H163.764C163.684 65.588 163.565 66.3387 163.448 67.0507H177.757V78.12ZM169.773 41.9494C172.896 43.8467 176.256 46.2187 179.893 48.9853L177.719 51.8707C176.335 50.764 175.069 49.7373 173.923 48.8667V51.1987H164.515V49.7374C162.736 51.1987 160.76 52.6613 158.585 54.124L156.411 51.0801C160.839 48.3134 164.555 45.2694 167.519 41.9494H169.773Z" fill="#0093D6"/>
<path d="M228.755 50.2901C227.61 53.3328 226.107 56.2981 224.288 59.2234L220.89 57.4848C222.747 54.4808 224.21 51.5541 225.316 48.6688L228.755 50.2901ZM208.12 57.6821L204.603 59.4221C203.298 56.0994 201.914 53.1354 200.451 50.5274L203.97 48.8261C205.394 51.5154 206.778 54.4394 208.12 57.6821ZM230.614 43.2928V46.9688H216.226V60.9634H232.116V64.5594H216.226V78.2381H212.43V64.5594H196.854V60.9634H212.43V46.9688H198.436V43.2928H230.614Z" fill="#0093D6"/>
<path d="M263.743 65.1133H244.293V73.0986H263.743V65.1133ZM267.539 78.316H263.743V76.6959H244.293V78.316H240.5V61.5159H267.539V78.316ZM237.219 54.2826C240.223 53.6106 244.373 49.38 249.671 41.632L253.584 42.976C250.383 47.404 247.14 51.1199 243.82 54.1239C250.54 53.8866 257.023 53.452 263.308 52.8586C262.044 50.9613 260.739 49.2226 259.435 47.5626L262.835 45.9413C266.036 49.8946 269.08 54.2426 271.965 59.0253L268.288 60.8453C267.341 59.1826 266.432 57.6412 265.521 56.1799C257.26 56.8919 248.049 57.4453 237.929 57.84L237.219 54.2826Z" fill="#0093D6"/>
</svg>
