<svg width="1133" height="791" viewBox="0 0 1133 791" fill="none" xmlns="http://www.w3.org/2000/svg">
<path d="M720.86 3.77415H794.163V790H706.961V515.029V515.021L711.351 241.466L711.391 238.996L709.644 240.743L436.062 514.314L434.355 516.021H436.769H697.161C460.491 571.18 305.921 662.526 240.315 727.753L240.298 727.771L240.282 727.789L183.573 790H2.26871L720.86 3.77415ZM1042.93 473.808L1042.9 473.757L1042.85 473.711C1031.63 461.545 1013.77 447.977 988.437 445.111C964.291 442.38 933.536 449.393 895.495 476.294L972.744 376.771L973.2 376.183L972.767 375.577L891.208 261.394L889.394 258.855V261.975V481.235V700.342L823.114 785.739V2.89828L1131.73 396.889L1056.87 493.322L1042.93 473.808Z" fill="#F9F9F9" stroke="#F9F9F9" stroke-width="2"/>
</svg>
