<svg width="1239" height="862" viewBox="0 0 1239 862" fill="none" xmlns="http://www.w3.org/2000/svg">
<path d="M879.159 -12.2637H968.917V860.636H862.111V555.31L867.466 251.675L867.506 249.358L865.793 250.918L532.085 554.57L530.174 556.31H532.758H851.45C562.239 617.504 373.401 719.028 293.319 791.48L293.301 791.497L293.283 791.514L224.041 860.636H2.42175L879.159 -12.2637ZM1271.93 509.593L1271.89 509.543L1271.85 509.498C1258.17 496.007 1236.43 480.992 1205.63 477.822C1176.07 474.779 1138.29 482.662 1091.46 513.036L1186.32 401.827L1186.85 401.204L1186.35 400.56L1086.86 273.822L1085.08 271.546V274.439V517.809V761.021L1003.79 856.324V-13.6484L1380.68 424.189L1289.13 531.504L1271.93 509.593Z" stroke="#ECECEC" stroke-width="2"/>
</svg>
