<svg width="20" height="20" viewBox="0 0 20 20" fill="none" xmlns="http://www.w3.org/2000/svg">
<path d="M12.1716 19H5C3.11438 19 2.17157 19 1.58579 18.4142C1 17.8284 1 16.8856 1 15V5C1 3.11438 1 2.17157 1.58579 1.58579C2.17157 1 3.11438 1 5 1H15C16.8856 1 17.8284 1 18.4142 1.58579C19 2.17157 19 3.11438 19 5V12.1716C19 12.5803 19 12.7847 18.9239 12.9685C18.8478 13.1522 18.7032 13.2968 18.4142 13.5858L13.5858 18.4142C13.2968 18.7032 13.1522 18.8478 12.9685 18.9239C12.7847 19 12.5803 19 12.1716 19Z" fill="#0088CC" fill-opacity="0.25" stroke="#0088CC" stroke-width="1.2"/>
</svg>
