<svg width="1136" height="158" viewBox="0 0 1136 158" fill="none" xmlns="http://www.w3.org/2000/svg">
<rect width="1136" height="158" fill="white"/>
<rect x="96" y="78" width="24" height="2" fill="#0088CC"/>
<path d="M138.328 70.816V85.24H141.184V73.576H154.792V85.096H157.792V70.816H138.328ZM140.2 76.024V78.664H156.208V76.024H140.2ZM140.2 81.208V83.968H156.256V81.208H140.2ZM146.416 67.624V90.16H149.416V67.624H146.416ZM161.848 74.992V77.152H169.096V74.992H161.848ZM161.92 68.368V70.552H169.024V68.368H161.92ZM161.848 78.256V80.44H169.096V78.256H161.848ZM160.696 71.608V73.888H169.888V71.608H160.696ZM163.096 81.592V83.872H166.672V86.608H163.096V88.888H169.12V81.592H163.096ZM161.8 81.592V89.848H164.224V81.592H161.8ZM170.464 68.92V70.984H182.704V68.92H170.464ZM171.064 71.848V73.792H182.32V71.848H171.064ZM169.888 74.728V76.792H183.16V74.728H169.888ZM175.12 67.624V76.48H177.856V67.624H175.12ZM171.52 77.704V90.136H174.184V79.744H180.736V77.704H171.52ZM179.152 77.704V87.448C179.152 87.712 179.08 87.808 178.768 87.808C178.456 87.808 177.448 87.832 176.56 87.784C176.872 88.408 177.232 89.392 177.304 90.088C178.864 90.088 179.992 90.064 180.808 89.704C181.6 89.32 181.84 88.696 181.84 87.472V77.704H179.152ZM172.696 80.824V82.696H180.544V80.824H172.696ZM172.696 83.824V85.696H180.544V83.824H172.696ZM185.176 74.896V77.44H206.776V74.896H185.176ZM187.264 70.216V72.712H200.992V70.216H187.264ZM191.488 83.272V85.432H202.216V83.272H191.488ZM191.488 87.04V89.464H202.216V87.04H191.488ZM192.928 67.624V76.312H195.76V67.624H192.928ZM203.488 68.32C199.288 74.344 192.232 78.928 184.432 81.424C184.96 82 185.824 83.2 186.16 83.824C193.936 80.968 201.256 76.144 205.96 69.592L203.488 68.32ZM189.88 79.36V90.184H192.76V81.712H201.04V90.088H204.04V79.36H189.88ZM221.608 67.6C220.696 70 218.992 72.28 216.976 73.672C217.6 74.056 218.656 74.896 219.136 75.376C221.128 73.72 223.072 71.104 224.2 68.248L221.608 67.6ZM221.272 70.048L219.904 72.352H230.968V70.048H221.272ZM227.08 70.648C225.856 74.608 222.352 76.768 217.552 77.8C218.056 78.304 218.896 79.432 219.208 79.984C224.272 78.544 228.088 75.976 229.816 71.128L227.08 70.648ZM221.44 71.44L219.496 72.52C221.104 75.616 224.584 78.712 229.984 79.912C230.32 79.24 231.04 78.16 231.544 77.608C226.288 76.744 222.832 74.128 221.44 71.44ZM218.224 80.824V83.248H231.064V80.824H218.224ZM223.168 78.952V90.232H225.88V78.952H223.168ZM223.12 82.024C221.848 84.28 219.328 86.44 216.688 87.472C217.288 88 218.08 88.984 218.488 89.632C221.272 88.24 223.84 85.672 225.304 82.792L223.12 82.024ZM226.288 82.384L224.2 83.152C225.472 85.672 227.656 88.216 229.84 89.584C230.272 88.936 231.112 87.952 231.712 87.472C229.576 86.416 227.392 84.4 226.288 82.384ZM215.104 70.696V86.128H217.6V70.696H215.104ZM213.016 67.672C211.984 71.176 210.208 74.704 208.264 76.96C208.72 77.728 209.416 79.36 209.656 80.08C212.104 77.2 214.312 72.64 215.68 68.44L213.016 67.672ZM211.12 74.248V90.136H213.856V71.656L213.784 71.608L211.12 74.248ZM246.088 67.936V90.136H248.992V67.936H246.088ZM242.008 68.944C241.456 71.896 240.448 74.944 239.152 76.84C239.848 77.152 241.096 77.8 241.672 78.232C242.944 76.12 244.096 72.76 244.768 69.52L242.008 68.944ZM242.92 72.28L242.224 75.088H254.032V72.28H242.92ZM239.584 79.24V82.072H255.184V79.24H239.584ZM237.808 67.72C236.608 71.152 234.568 74.56 232.432 76.744C232.912 77.44 233.704 79.024 233.968 79.72C236.536 76.96 238.984 72.64 240.52 68.56L237.808 67.72ZM235.432 74.344V90.136H238.168V71.632V71.608L235.432 74.344Z" fill="#2D2D2D"/>
<circle cx="410" cy="38" r="7" fill="#0088CC" fill-opacity="0.25"/>
<path d="M406 37L409.214 39.4104C409.65 39.7377 410.268 39.6549 410.603 39.2244L417 31" stroke="#0088CC" stroke-width="1.2" stroke-linecap="round"/>
<path d="M429.552 31.544V41.16H431.456V33.384H440.528V41.064H442.528V31.544H429.552ZM430.8 35.016V36.776H441.472V35.016H430.8ZM430.8 38.472V40.312H441.504V38.472H430.8ZM434.944 29.416V44.44H436.944V29.416H434.944ZM445.232 34.328V35.768H450.064V34.328H445.232ZM445.28 29.912V31.368H450.016V29.912H445.28ZM445.232 36.504V37.96H450.064V36.504H445.232ZM444.464 32.072V33.592H450.592V32.072H444.464ZM446.064 38.728V40.248H448.448V42.072H446.064V43.592H450.08V38.728H446.064ZM445.2 38.728V44.232H446.816V38.728H445.2ZM450.976 30.28V31.656H459.136V30.28H450.976ZM451.376 32.232V33.528H458.88V32.232H451.376ZM450.592 34.152V35.528H459.44V34.152H450.592ZM454.08 29.416V35.32H455.904V29.416H454.08ZM451.68 36.136V44.424H453.456V37.496H457.824V36.136H451.68ZM456.768 36.136V42.632C456.768 42.808 456.72 42.872 456.512 42.872C456.304 42.872 455.632 42.888 455.04 42.856C455.248 43.272 455.488 43.928 455.536 44.392C456.576 44.392 457.328 44.376 457.872 44.136C458.4 43.88 458.56 43.464 458.56 42.648V36.136H456.768ZM452.464 38.216V39.464H457.696V38.216H452.464ZM452.464 40.216V41.464H457.696V40.216H452.464ZM460.784 34.264V35.96H475.184V34.264H460.784ZM462.176 31.144V32.808H471.328V31.144H462.176ZM464.992 39.848V41.288H472.144V39.848H464.992ZM464.992 42.36V43.976H472.144V42.36H464.992ZM465.952 29.416V35.208H467.84V29.416H465.952ZM472.992 29.88C470.192 33.896 465.488 36.952 460.288 38.616C460.64 39 461.216 39.8 461.44 40.216C466.624 38.312 471.504 35.096 474.64 30.728L472.992 29.88ZM463.92 37.24V44.456H465.84V38.808H471.36V44.392H473.36V37.24H463.92ZM479.968 29.352C479.28 31.432 478.032 33.48 476.592 34.728C477.056 35 477.872 35.64 478.24 35.976C479.664 34.536 481.072 32.232 481.92 29.848L479.968 29.352ZM480.304 31.176L479.376 33.032H490.48V31.176H480.304ZM479.168 34.952V40.104H481.104V36.744H490.112V34.952H479.168ZM476.64 39.16V41.016H491.36V39.16H476.64ZM483.872 32.136V44.44H485.856V32.136H483.872ZM500.272 36.984V38.632H506.048V36.984H500.272ZM501.472 34.376V35.912H505.808V34.376H501.472ZM501.952 38.04V44.424H503.648V38.04H501.952ZM505.12 36.984V41.192C505.12 41.352 505.072 41.384 504.896 41.384C504.736 41.4 504.224 41.4 503.712 41.384C503.92 41.848 504.128 42.536 504.16 43.032C505.072 43.032 505.728 43.016 506.208 42.744C506.704 42.456 506.832 41.992 506.832 41.24V36.984H505.12ZM503.648 31.352C504.32 32.808 505.488 34.744 506.704 35.864C506.976 35.288 507.392 34.6 507.728 34.136C506.48 33.16 505.2 31.144 504.416 29.416H502.752C502.192 31.016 500.944 33.224 499.632 34.376C499.968 34.808 500.352 35.496 500.576 35.992C501.904 34.792 503.024 32.84 503.648 31.352ZM494.992 34.664C494.912 35.624 494.688 36.456 494.112 37.016C494.32 37.176 494.656 37.512 494.8 37.672C495.472 37.016 495.808 35.976 495.952 34.776L494.992 34.664ZM496.864 34.68C496.752 35.624 496.48 36.424 495.84 36.968C496.064 37.128 496.4 37.464 496.528 37.624C497.248 36.984 497.648 35.976 497.808 34.808L496.864 34.68ZM495.008 39.112C494.912 40.072 494.688 40.888 494.112 41.464C494.32 41.624 494.656 41.96 494.8 42.136C495.488 41.464 495.824 40.408 495.952 39.224L495.008 39.112ZM496.896 39.112C496.784 40.088 496.512 40.888 495.888 41.464C496.08 41.608 496.416 41.944 496.544 42.104C497.28 41.448 497.664 40.408 497.824 39.224L496.896 39.112ZM492.48 32.888V34.36H500.192V32.888H492.48ZM496.752 30.68V32.056H499.728V30.68H496.752ZM493.68 37.704V39.016H499.232V37.704H493.68ZM493.68 42.2V43.576H499.296V42.2H493.68ZM495.728 29.432V33.624H497.328V29.432H495.728ZM493.392 30.312V33.528H494.864V30.312H493.392ZM492.944 34.744V44.296H494.288V34.744H492.944ZM498.368 34.744V44.12H499.76V34.744H498.368ZM494.912 36.216C495.232 36.584 495.632 37.096 495.84 37.4L496.496 36.728C496.288 36.424 495.888 35.976 495.536 35.624L494.912 36.216ZM496.8 36.28C497.184 36.696 497.632 37.272 497.872 37.64L498.496 36.92C498.272 36.584 497.792 36.04 497.392 35.64L496.8 36.28ZM494.912 40.664C495.264 41.048 495.696 41.592 495.904 41.928L496.56 41.24C496.352 40.936 495.92 40.44 495.536 40.072L494.912 40.664ZM496.832 40.744C497.216 41.16 497.68 41.752 497.92 42.12L498.544 41.384C498.32 41.048 497.824 40.504 497.408 40.088L496.832 40.744ZM508.88 31.64V33.48H523.152V31.64H508.88ZM514.096 36.824V38.6H522.48V36.824H514.096ZM513.472 42.264V44.04H523.088V42.264H513.472ZM517.36 34.168V43.208H519.296V34.168H517.36ZM513.92 29.4C513.088 32.632 511.264 36.216 508.368 38.104C508.656 38.568 509.104 39.416 509.296 39.96C512.72 37.624 514.736 33.736 515.92 29.88L513.92 29.4ZM510.72 36.104V44.408H512.656V36.104H510.72ZM524.592 36.104H526.768C526.768 35.8053 526.795 35.5067 526.848 35.208C526.912 34.8987 527.013 34.6213 527.152 34.376C527.291 34.12 527.472 33.9173 527.696 33.768C527.931 33.608 528.213 33.528 528.544 33.528C529.035 33.528 529.435 33.6827 529.744 33.992C530.064 34.2907 530.224 34.712 530.224 35.256C530.224 35.5973 530.144 35.9013 529.984 36.168C529.835 36.4347 529.643 36.6747 529.408 36.888C529.184 37.1013 528.933 37.2987 528.656 37.48C528.379 37.6507 528.117 37.8213 527.872 37.992C527.392 38.3227 526.933 38.648 526.496 38.968C526.069 39.288 525.696 39.64 525.376 40.024C525.056 40.3973 524.8 40.824 524.608 41.304C524.427 41.784 524.336 42.3493 524.336 43H532.56V41.048H527.264C527.541 40.664 527.861 40.328 528.224 40.04C528.587 39.752 528.96 39.4853 529.344 39.24C529.728 38.984 530.107 38.728 530.48 38.472C530.864 38.216 531.205 37.9333 531.504 37.624C531.803 37.304 532.043 36.9413 532.224 36.536C532.405 36.1307 532.496 35.6453 532.496 35.08C532.496 34.536 532.389 34.0453 532.176 33.608C531.973 33.1707 531.696 32.8027 531.344 32.504C530.992 32.2053 530.581 31.976 530.112 31.816C529.653 31.656 529.168 31.576 528.656 31.576C527.984 31.576 527.387 31.6933 526.864 31.928C526.352 32.152 525.925 32.472 525.584 32.888C525.243 33.2933 524.987 33.7733 524.816 34.328C524.645 34.872 524.571 35.464 524.592 36.104ZM540.891 33.672V31.8H534.635L533.531 37.992H535.579C535.803 37.6827 536.043 37.4587 536.299 37.32C536.555 37.1707 536.885 37.096 537.291 37.096C537.6 37.096 537.872 37.1493 538.107 37.256C538.341 37.3627 538.544 37.512 538.715 37.704C538.885 37.896 539.013 38.12 539.099 38.376C539.184 38.632 539.227 38.904 539.227 39.192C539.227 39.4693 539.179 39.7413 539.083 40.008C538.997 40.264 538.869 40.4933 538.699 40.696C538.539 40.888 538.336 41.048 538.091 41.176C537.856 41.2933 537.589 41.352 537.291 41.352C536.779 41.352 536.357 41.2027 536.027 40.904C535.696 40.5947 535.504 40.184 535.451 39.672H533.179C533.189 40.2587 533.307 40.776 533.531 41.224C533.765 41.6613 534.075 42.0293 534.459 42.328C534.843 42.6267 535.28 42.8507 535.771 43C536.272 43.1387 536.795 43.208 537.339 43.208C537.904 43.2187 538.437 43.128 538.939 42.936C539.44 42.7333 539.877 42.4507 540.251 42.088C540.635 41.7253 540.939 41.2987 541.163 40.808C541.387 40.3067 541.499 39.768 541.499 39.192C541.499 38.6693 541.419 38.1787 541.259 37.72C541.109 37.2507 540.885 36.8453 540.587 36.504C540.299 36.1627 539.941 35.8907 539.515 35.688C539.088 35.4853 538.597 35.384 538.043 35.384C537.595 35.384 537.195 35.4533 536.843 35.592C536.491 35.72 536.16 35.9387 535.851 36.248L535.819 36.216L536.267 33.672H540.891ZM542.437 30.424V32.136H550.597V30.424H542.437ZM542.917 38.04V39.752H550.101V38.04H542.917ZM545.573 36.488V42.808L547.477 42.52V36.488H545.573ZM542.261 42.152L542.549 44.072C544.741 43.8 547.813 43.4 550.677 43.016L550.629 41.224C547.637 41.576 544.389 41.96 542.261 42.152ZM542.405 34.552L542.517 36.328C544.437 36.248 547.109 36.136 549.653 35.992L549.701 34.344C547.029 34.44 544.245 34.52 542.405 34.552ZM547.317 33.16C548.197 34.296 549.173 35.848 549.541 36.84L551.061 35.976C550.661 34.968 549.637 33.496 548.741 32.408L547.317 33.16ZM544.709 31.464C544.453 32.648 543.925 34.296 543.461 35.352L545.077 35.784C545.605 34.792 546.229 33.256 546.789 31.896L544.709 31.464ZM551.189 31.368V40.424H553.029V31.368H551.189ZM554.837 29.864V42.136C554.837 42.424 554.741 42.504 554.453 42.52C554.133 42.52 553.157 42.536 552.197 42.488C552.469 43.032 552.741 43.896 552.821 44.44C554.181 44.44 555.221 44.376 555.861 44.072C556.501 43.768 556.709 43.24 556.709 42.152V29.864H554.837ZM562.773 34.648V38.536H559.829L562.725 34.648H562.773ZM562.773 40.408V43H564.933V40.408H566.421V38.536H564.933V31.8H562.901L558.037 38.328V40.408H562.773ZM574.672 33.672V31.8H568.416L567.312 37.992H569.36C569.584 37.6827 569.824 37.4587 570.08 37.32C570.336 37.1707 570.667 37.096 571.072 37.096C571.381 37.096 571.653 37.1493 571.888 37.256C572.123 37.3627 572.325 37.512 572.496 37.704C572.667 37.896 572.795 38.12 572.88 38.376C572.965 38.632 573.008 38.904 573.008 39.192C573.008 39.4693 572.96 39.7413 572.864 40.008C572.779 40.264 572.651 40.4933 572.48 40.696C572.32 40.888 572.117 41.048 571.872 41.176C571.637 41.2933 571.371 41.352 571.072 41.352C570.56 41.352 570.139 41.2027 569.808 40.904C569.477 40.5947 569.285 40.184 569.232 39.672H566.96C566.971 40.2587 567.088 40.776 567.312 41.224C567.547 41.6613 567.856 42.0293 568.24 42.328C568.624 42.6267 569.061 42.8507 569.552 43C570.053 43.1387 570.576 43.208 571.12 43.208C571.685 43.2187 572.219 43.128 572.72 42.936C573.221 42.7333 573.659 42.4507 574.032 42.088C574.416 41.7253 574.72 41.2987 574.944 40.808C575.168 40.3067 575.28 39.768 575.28 39.192C575.28 38.6693 575.2 38.1787 575.04 37.72C574.891 37.2507 574.667 36.8453 574.368 36.504C574.08 36.1627 573.723 35.8907 573.296 35.688C572.869 35.4853 572.379 35.384 571.824 35.384C571.376 35.384 570.976 35.4533 570.624 35.592C570.272 35.72 569.941 35.9387 569.632 36.248L569.6 36.216L570.048 33.672H574.672ZM584.331 33.96C584.523 39.496 586.171 44.424 588.971 44.424C590.251 44.424 590.811 43.864 591.067 41.528C590.635 41.384 590.043 41.048 589.659 40.696C589.595 42.168 589.451 42.776 589.083 42.776C587.643 42.776 586.155 38.664 586.075 33.96H584.331ZM586.827 34.616C587.515 34.984 588.363 35.544 588.763 35.944L589.755 35C589.323 34.6 588.459 34.088 587.771 33.752L586.827 34.616ZM588.027 37.304C587.211 39.912 585.467 41.96 583.131 43.128C583.515 43.432 584.171 44.104 584.427 44.44C586.827 43.016 588.731 40.712 589.771 37.688L588.027 37.304ZM579.771 39.208C579.531 40.024 579.083 40.824 578.459 41.384C578.795 41.56 579.339 41.928 579.595 42.136C580.235 41.496 580.811 40.504 581.115 39.48L579.771 39.208ZM578.267 35.32V36.888H590.635V35.32H578.267ZM579.531 37.48V38.792H584.363V37.48H579.531ZM576.379 32.744V34.328H590.731V32.744H576.379ZM583.947 30.536V31.944H589.371V30.536H583.947ZM577.275 35.32V38.088C577.275 39.72 577.163 41.976 575.931 43.576C576.363 43.752 577.179 44.216 577.515 44.504C578.827 42.76 579.051 40.04 579.051 38.12V35.32H577.275ZM582.875 29.4V33.544H584.747V29.4H582.875ZM578.779 30.12V33.576H580.571V30.12H578.779ZM581.259 38.344V41.16C581.259 41.288 581.211 41.32 581.099 41.32C580.987 41.32 580.651 41.32 580.347 41.304C580.507 41.592 580.779 42.072 580.891 42.424C581.467 42.424 581.915 42.408 582.315 42.216C582.699 42.04 582.795 41.8 582.795 41.176V38.344H581.259ZM583.531 39.304C583.035 41.192 581.355 42.68 578.875 43.368C579.131 43.624 579.515 44.152 579.691 44.456C582.395 43.624 584.267 41.832 585.003 39.528L583.531 39.304ZM593.051 32.392V34.264H604.667V32.392H593.051ZM598.539 29.416V33.272H600.507V29.416H598.539ZM604.059 32.392V32.856C602.619 35.496 599.243 39.144 596.171 41.112C596.619 41.448 597.227 42.04 597.547 42.456C600.795 40.296 604.315 36.6 606.331 33.208L604.875 32.28L604.491 32.392H604.059ZM596.203 39.304L594.539 39.944C596.155 43.416 598.907 44.168 602.827 44.168H606.427C606.523 43.608 606.827 42.712 607.099 42.264C606.139 42.296 603.691 42.296 602.955 42.296C599.899 42.296 597.307 41.832 596.203 39.304ZM593.755 44.424C595.003 42.52 596.123 40.04 596.747 38.536L594.827 37.832C594.235 39.592 593.051 41.896 591.883 43.256L593.755 44.424ZM613.355 39.176V40.552H617.739V39.176H613.355ZM613.243 36.808V38.216H616.843V41.544H613.243V42.952H618.635V36.808H613.243ZM612.459 36.808V43.768H614.187V36.808H612.459ZM609.771 32.248V33.544H613.787V32.248H609.771ZM617.195 32.248V33.544H621.243V32.248H617.195ZM620.459 30.024V42.152C620.459 42.424 620.363 42.52 620.075 42.52C619.787 42.52 618.811 42.536 617.979 42.488C618.235 43 618.523 43.896 618.603 44.44C619.979 44.44 620.907 44.408 621.547 44.088C622.187 43.768 622.395 43.208 622.395 42.168V30.024H620.459ZM609.931 30.024V31.416H613.195V34.456H609.931V35.832H614.987V30.024H609.931ZM621.483 30.024H616.075V35.88H621.483V34.504H617.899V31.416H621.483V30.024ZM608.827 30.024V44.44H610.731V30.024H608.827ZM626.651 45.208C628.635 44.616 629.819 43.144 629.819 41.336C629.819 39.992 629.211 39.128 628.091 39.128C627.227 39.128 626.507 39.672 626.507 40.568C626.507 41.496 627.243 42.008 628.043 42.008C628.395 42.008 628.731 41.896 628.987 41.656L628.107 40.216L628.219 41.8C628.219 42.712 627.483 43.496 626.139 43.928L626.651 45.208ZM643.179 32.52V33.816H646.891V32.52H643.179ZM643.131 42.536V43.912H647.883V42.536H643.131ZM642.299 36.312V37.448H647.419V36.312H642.299ZM641.531 34.392V36.712C641.531 38.536 641.355 41.112 639.931 42.952C640.267 43.16 640.955 43.784 641.211 44.12C642.843 42.056 643.163 38.856 643.163 36.744V34.392H641.531ZM642.459 34.392V35.72H646.459V38.072H642.411V39.4H648.171V34.392H642.459ZM642.443 40.024V44.424H644.059V41.4H646.763V44.36H648.427V40.024H642.443ZM649.131 31.368V40.424H650.939V31.368H649.131ZM652.635 29.736V42.136C652.635 42.408 652.523 42.504 652.235 42.504C651.931 42.52 650.987 42.52 650.027 42.472C650.299 43.016 650.587 43.896 650.651 44.424C652.059 44.44 653.035 44.376 653.659 44.056C654.283 43.752 654.491 43.224 654.491 42.136V29.736H652.635ZM643.899 29.624C643.131 30.92 641.771 32.424 639.851 33.528C640.219 33.816 640.779 34.472 641.019 34.904C643.195 33.496 644.603 31.848 645.563 30.552V30.008H644.971V29.624H643.899ZM644.315 29.624V30.968H644.651C645.691 31.736 647.067 33.112 647.739 33.912L648.97 32.504C648.187 31.672 646.731 30.472 645.611 29.624H644.315ZM656.459 39.208V40.776H670.731V39.208H656.459ZM656.491 32.024V33.608H670.667V32.024H656.491ZM657.147 34.888V36.392H670.059V34.888H657.147ZM657.947 37.096V38.488H669.307V37.096H657.947ZM662.587 35.656V44.44H664.491V35.656H662.587ZM661.195 29.4V32.776H662.987V29.4H661.195ZM664.155 29.4V32.664H665.979V29.4H664.155ZM662.235 39.912C660.923 41.128 658.379 42.184 655.963 42.648C656.379 43.048 656.939 43.784 657.195 44.248C659.659 43.608 662.219 42.248 663.739 40.584L662.235 39.912ZM664.875 39.864L663.387 40.456C664.891 42.264 667.339 43.624 669.867 44.264C670.155 43.736 670.731 42.936 671.163 42.536C668.667 42.12 666.171 41.128 664.875 39.864ZM667.835 29.528C667.611 30.232 667.195 31.208 666.827 31.864L668.379 32.344C668.795 31.752 669.339 30.888 669.851 30.008L667.835 29.528ZM665.723 32.968C665.562 33.56 665.227 34.376 664.939 34.952L666.571 35.416C666.907 34.904 667.323 34.2 667.755 33.432L665.723 32.968ZM657.643 30.04C658.075 30.776 658.587 31.752 658.763 32.376L660.507 31.752C660.283 31.128 659.755 30.168 659.291 29.48L657.643 30.04ZM659.674 33.624C659.915 34.088 660.187 34.76 660.283 35.176L662.235 34.84C662.107 34.408 661.803 33.784 661.531 33.336L659.674 33.624ZM672.283 31.144V32.92H677.787V31.144H672.283ZM674.075 32.168V39.736H676.011V32.168H674.075ZM671.851 39.736L672.635 41.576C674.251 41 676.347 40.248 678.283 39.512L677.963 37.848C675.755 38.568 673.355 39.32 671.851 39.736ZM677.995 30.056V31.672H687.099V30.056H677.995ZM680.427 36.504H684.619V37.528H680.427V36.504ZM680.427 38.84H684.619V39.864H680.427V38.84ZM680.427 34.184H684.619V35.208H680.427V34.184ZM678.635 32.776V41.272H686.507V32.776H678.635ZM681.467 30.952C681.387 31.752 681.195 32.84 681.003 33.608L682.715 33.928C682.987 33.24 683.371 32.216 683.707 31.208L681.467 30.952ZM680.347 41.224C679.531 41.88 677.899 42.696 676.555 43.112C676.939 43.48 677.467 44.056 677.739 44.44C679.147 43.976 680.827 43.128 681.899 42.328L680.347 41.224ZM682.763 42.344C683.803 42.952 685.195 43.864 685.851 44.456L687.371 43.336C686.619 42.728 685.195 41.864 684.187 41.32L682.763 42.344ZM691.195 33.992V35.8H699.883V33.992H691.195ZM691.195 37.704V39.512H699.883V37.704H691.195ZM691.195 41.4V43.272H699.883V41.4H691.195ZM689.803 30.28V44.264H691.739V32.168H699.179V44.264H701.211V30.28H689.803ZM708.843 30.056V31.432H718.699V30.056H708.843ZM710.731 33.4V34.184H716.763V33.4H710.731ZM710.731 34.68V35.464H716.763V34.68H710.731ZM709.755 31.992V36.44H711.467V32.936H715.915V36.44H717.707V31.992H709.755ZM708.299 35.976V38.264H709.915V37.048H717.355V38.264H719.067V35.976H708.299ZM710.315 37.32C709.931 37.88 709.307 38.52 708.667 38.872L709.803 39.8C710.475 39.32 711.083 38.6 711.515 37.976L710.315 37.32ZM711.323 37.304V38.12C711.323 39.224 711.691 39.512 713.131 39.512C713.451 39.512 714.667 39.512 714.987 39.512C715.931 39.512 716.299 39.256 716.427 38.328C716.059 38.264 715.499 38.104 715.227 37.96C715.163 38.408 715.083 38.504 714.779 38.504C714.507 38.504 713.547 38.504 713.355 38.504C712.923 38.504 712.843 38.456 712.843 38.12V37.304H711.323ZM712.587 37C713.131 37.384 713.739 37.96 714.011 38.392L715.163 37.704C714.875 37.272 714.235 36.728 713.675 36.36L712.587 37ZM715.835 37.864C716.443 38.424 717.147 39.224 717.451 39.752L718.683 39.096C718.363 38.536 717.611 37.784 717.003 37.256L715.835 37.864ZM712.075 39.048C711.307 39.832 709.931 40.616 708.043 41.16C708.379 41.4 708.875 41.944 709.099 42.328C711.147 41.544 712.619 40.632 713.755 39.416L712.075 39.048ZM716.059 39.992V40.264C715.131 41.688 712.235 42.712 708.075 43.128C708.395 43.496 708.795 44.088 708.971 44.504C713.387 43.912 716.507 42.664 717.883 40.552L716.731 39.928L716.411 39.992H716.059ZM711.531 40.568L710.011 41.08C711.707 43.112 714.587 44.12 718.251 44.472C718.459 44.008 718.907 43.32 719.259 42.952C715.803 42.76 712.891 42.04 711.531 40.568ZM711.771 39.992L710.699 41.064H716.507V39.992H711.771ZM712.651 30.696C712.602 31.176 712.443 31.864 712.315 32.392L713.963 32.664C714.171 32.216 714.443 31.608 714.731 30.92L712.651 30.696ZM706.907 29.448C706.219 31.784 705.035 34.136 703.739 35.64C704.043 36.152 704.507 37.24 704.667 37.72C706.299 35.8 707.771 32.76 708.683 29.96L706.907 29.448ZM705.643 33.832V44.424H707.467V32.104L707.419 32.072L705.643 33.832ZM728.555 42.504C730.315 43.112 732.171 43.912 733.259 44.488L734.875 43.144C733.643 42.6 731.595 41.816 729.803 41.24L728.555 42.504ZM720.331 39.864V41.512H734.843V39.864H720.331ZM721.323 37V38.648H733.899V37H721.323ZM723.995 35.592V40.568H725.947V35.592H723.995ZM726.555 30.776V35.32H728.427V30.776H726.555ZM729.147 35.592V40.568H731.115V35.592H729.147ZM723.691 33.608H731.355V34.52H723.691V33.608ZM723.691 31.4H731.355V32.28H723.691V31.4ZM721.835 29.976V35.944H733.307V29.976H721.835ZM724.987 41.288C724.011 41.928 722.011 42.68 720.379 43.048C720.779 43.432 721.307 44.056 721.579 44.472C723.291 44.056 725.323 43.272 726.603 42.456L724.987 41.288ZM736.347 34.264V35.96H750.747V34.264H736.347ZM737.739 31.144V32.808H746.891V31.144H737.739ZM740.555 39.848V41.288H747.707V39.848H740.555ZM740.555 42.36V43.976H747.707V42.36H740.555ZM741.515 29.416V35.208H743.403V29.416H741.515ZM748.555 29.88C745.755 33.896 741.051 36.952 735.851 38.616C736.203 39 736.779 39.8 737.003 40.216C742.187 38.312 747.067 35.096 750.203 30.728L748.555 29.88ZM739.483 37.24V44.456H741.403V38.808H746.923V44.392H748.923V37.24H739.483ZM752.587 30.488V32.456H766.539V30.488H752.587ZM760.315 35.848C762.091 37.208 764.459 39.176 765.515 40.44L767.147 38.968C765.979 37.688 763.515 35.848 761.803 34.6L760.315 35.848ZM759.675 31.208C758.347 34.056 755.515 37.16 752.09 38.776C752.491 39.208 753.099 40.008 753.403 40.52C757.083 38.6 759.995 35.336 761.819 31.96L759.675 31.208ZM758.507 35.08V44.408H760.619V32.984L758.507 35.08ZM768.443 31.64V33.48H782.715V31.64H768.443ZM773.659 36.824V38.6H782.043V36.824H773.659ZM773.035 42.264V44.04H782.651V42.264H773.035ZM776.923 34.168V43.208H778.859V34.168H776.923ZM773.483 29.4C772.651 32.632 770.827 36.216 767.931 38.104C768.219 38.568 768.667 39.416 768.859 39.96C772.283 37.624 774.299 33.736 775.483 29.88L773.483 29.4ZM770.283 36.104V44.408H772.219V36.104H770.283ZM789.051 34.168V36.008H792.139V34.168H789.051ZM788.315 29.416V42.392L790.299 42.168V29.416H788.315ZM785.275 32.744V42.84L787.147 42.584V32.744H785.275ZM784.09 42.328L784.411 44.36C786.523 43.944 789.467 43.432 792.187 42.904L792.043 41.016C789.227 41.512 786.139 42.04 784.09 42.328ZM797.323 32.872C796.331 33.768 794.779 34.856 793.323 35.592C793.579 35.992 793.915 36.664 794.043 37.096C795.627 36.376 797.435 35.448 798.859 34.456L797.323 32.872ZM792.715 29.416V41.192C792.715 43.448 793.211 44.104 794.971 44.104C795.323 44.104 796.571 44.104 796.939 44.104C798.555 44.104 799.051 43.08 799.243 40.424C798.699 40.296 797.915 39.944 797.435 39.592C797.355 41.688 797.275 42.232 796.747 42.232C796.507 42.232 795.531 42.232 795.291 42.232C794.779 42.232 794.715 42.104 794.715 41.224V29.416H792.715ZM807.642 33.064V34.632H813.163V33.064H807.642ZM804.891 42.328L805.531 44.2C807.051 43.864 809.019 43.432 810.875 43L810.731 41.336C808.587 41.72 806.347 42.12 804.891 42.328ZM806.555 30.136V42.776H808.427V30.136H806.555ZM807.642 30.136V31.784H812.139V35.96H807.642V37.608H814.027V30.136H807.642ZM810.987 36.52L809.387 36.776C810.075 40.312 811.323 43.032 813.899 44.392C814.171 43.896 814.731 43.144 815.147 42.776C812.795 41.736 811.563 39.368 810.987 36.52ZM813.291 37.72C812.699 38.52 811.659 39.528 810.891 40.152L812.091 41.08C812.891 40.504 813.915 39.608 814.795 38.776L813.291 37.72ZM800.731 30.104V44.456H802.523V31.816H804.731V30.104H800.731ZM804.203 30.104V30.68C803.947 31.704 803.403 33.976 802.939 35.416C803.883 36.504 804.123 37.496 804.123 38.248C804.123 38.696 804.043 39.016 803.835 39.16C803.691 39.256 803.531 39.288 803.355 39.304C803.147 39.304 802.923 39.304 802.619 39.272C802.891 39.752 803.035 40.504 803.051 40.984C803.435 41 803.851 41 804.155 40.952C804.523 40.904 804.843 40.792 805.099 40.6C805.627 40.232 805.867 39.56 805.867 38.488C805.867 37.56 805.659 36.456 804.603 35.208C805.099 33.96 805.675 32.184 806.107 30.792L804.811 30.04L804.539 30.104H804.203ZM818.651 39.048C817.227 39.048 816.059 40.2 816.059 41.624C816.059 43.064 817.227 44.216 818.651 44.216C820.091 44.216 821.243 43.064 821.243 41.624C821.243 40.2 820.091 39.048 818.651 39.048ZM818.651 43.064C817.867 43.064 817.211 42.424 817.211 41.624C817.211 40.84 817.867 40.2 818.651 40.2C819.451 40.2 820.091 40.84 820.091 41.624C820.091 42.424 819.451 43.064 818.651 43.064Z" fill="#4B4B4B"/>
<circle cx="410" cy="80" r="7" fill="#0088CC" fill-opacity="0.25"/>
<path d="M406 79L409.214 81.4104C409.65 81.7377 410.268 81.6549 410.603 81.2244L417 73" stroke="#0088CC" stroke-width="1.2" stroke-linecap="round"/>
<path d="M429.552 73.544V83.16H431.456V75.384H440.528V83.064H442.528V73.544H429.552ZM430.8 77.016V78.776H441.472V77.016H430.8ZM430.8 80.472V82.312H441.504V80.472H430.8ZM434.944 71.416V86.44H436.944V71.416H434.944ZM445.232 76.328V77.768H450.064V76.328H445.232ZM445.28 71.912V73.368H450.016V71.912H445.28ZM445.232 78.504V79.96H450.064V78.504H445.232ZM444.464 74.072V75.592H450.592V74.072H444.464ZM446.064 80.728V82.248H448.448V84.072H446.064V85.592H450.08V80.728H446.064ZM445.2 80.728V86.232H446.816V80.728H445.2ZM450.976 72.28V73.656H459.136V72.28H450.976ZM451.376 74.232V75.528H458.88V74.232H451.376ZM450.592 76.152V77.528H459.44V76.152H450.592ZM454.08 71.416V77.32H455.904V71.416H454.08ZM451.68 78.136V86.424H453.456V79.496H457.824V78.136H451.68ZM456.768 78.136V84.632C456.768 84.808 456.72 84.872 456.512 84.872C456.304 84.872 455.632 84.888 455.04 84.856C455.248 85.272 455.488 85.928 455.536 86.392C456.576 86.392 457.328 86.376 457.872 86.136C458.4 85.88 458.56 85.464 458.56 84.648V78.136H456.768ZM452.464 80.216V81.464H457.696V80.216H452.464ZM452.464 82.216V83.464H457.696V82.216H452.464ZM460.784 76.264V77.96H475.184V76.264H460.784ZM462.176 73.144V74.808H471.328V73.144H462.176ZM464.992 81.848V83.288H472.144V81.848H464.992ZM464.992 84.36V85.976H472.144V84.36H464.992ZM465.952 71.416V77.208H467.84V71.416H465.952ZM472.992 71.88C470.192 75.896 465.488 78.952 460.288 80.616C460.64 81 461.216 81.8 461.44 82.216C466.624 80.312 471.504 77.096 474.64 72.728L472.992 71.88ZM463.92 79.24V86.456H465.84V80.808H471.36V86.392H473.36V79.24H463.92ZM480.592 75.016V83.384C480.592 85.608 481.2 86.248 483.36 86.248C483.824 86.248 485.712 86.248 486.192 86.248C488.176 86.248 488.736 85.32 488.992 82.408C488.432 82.296 487.568 81.928 487.12 81.592C486.992 83.88 486.848 84.328 486.032 84.328C485.584 84.328 483.984 84.328 483.6 84.328C482.768 84.328 482.64 84.216 482.64 83.4V75.016H480.592ZM480.784 72.792C482.048 73.656 483.696 74.92 484.608 75.704L485.872 74.12C484.96 73.416 483.328 72.216 482.032 71.4L480.784 72.792ZM478.032 75.752C477.744 77.64 477.152 79.672 476.336 81.064L478.208 81.752C479.008 80.376 479.52 78.104 479.872 76.216L478.032 75.752ZM487.456 77.64C488.416 79.16 489.408 81.224 489.776 82.568L491.632 81.624C491.2 80.28 490.208 78.328 489.2 76.824L487.456 77.64ZM488.224 72.344C486.08 76.856 481.808 81.656 476.384 84.136C476.784 84.52 477.344 85.224 477.632 85.672C483.36 82.856 487.584 78.056 490.16 73.128L488.224 72.344ZM496.176 71.688C495.328 72.888 493.712 74.104 492.384 74.824C492.88 75.192 493.472 75.784 493.792 76.216C495.264 75.288 496.88 73.928 498 72.456L496.176 71.688ZM496.544 76.184C495.664 77.432 493.968 78.68 492.592 79.416C493.088 79.832 493.664 80.44 493.984 80.904C495.488 79.928 497.168 78.504 498.304 76.936L496.544 76.184ZM496.896 80.648C495.952 82.296 494.144 83.752 492.384 84.568C492.896 85 493.456 85.656 493.76 86.136C495.712 85.016 497.52 83.368 498.704 81.336L496.896 80.648ZM498.256 72.104V73.704H507.36V72.104H498.256ZM500.72 78.424H504.928V79.448H500.72V78.424ZM500.72 80.76H504.928V81.8H500.72V80.76ZM500.72 76.12H504.928V77.128H500.72V76.12ZM498.928 74.712V83.192H506.816V74.712H498.928ZM501.776 72.952C501.696 73.736 501.488 74.824 501.296 75.592L503.008 75.912C503.296 75.224 503.68 74.216 504 73.208L501.776 72.952ZM500.704 83.224C499.92 83.88 498.304 84.696 496.976 85.112C497.36 85.48 497.888 86.04 498.144 86.44C499.552 85.976 501.216 85.128 502.256 84.312L500.704 83.224ZM503.152 84.344C504.192 84.952 505.584 85.864 506.24 86.456L507.76 85.336C507.008 84.728 505.584 83.864 504.576 83.32L503.152 84.344ZM511.136 79.864V81.512H521.984V79.864H511.136ZM508.976 74.024V75.752H519.568V74.024H508.976ZM513.696 76.968V78.616H520.96V76.968H513.696ZM521.248 79.864V80.136C521.04 83.048 520.768 84.264 520.448 84.584C520.288 84.728 520.128 84.76 519.856 84.76C519.536 84.776 518.864 84.76 518.16 84.68C518.464 85.16 518.688 85.912 518.704 86.44C519.536 86.456 520.304 86.456 520.752 86.408C521.28 86.344 521.664 86.2 522.048 85.784C522.56 85.24 522.848 83.848 523.104 80.6C523.136 80.36 523.168 79.864 523.168 79.864H521.248ZM517.84 82.072C518.24 82.744 518.656 83.672 518.8 84.248L520.192 83.736C520.032 83.16 519.6 82.264 519.168 81.608L517.84 82.072ZM510.768 72.088C511.328 72.744 511.968 73.672 512.224 74.264L514.064 73.512C513.744 72.904 513.056 72.024 512.496 71.416L510.768 72.088ZM513.008 82.504C513.264 83.56 513.424 84.936 513.376 85.816L515.024 85.592C515.024 84.696 514.864 83.352 514.56 82.312L513.008 82.504ZM515.424 82.376C515.776 83.288 516.112 84.488 516.208 85.272L517.76 84.872C517.632 84.104 517.28 82.936 516.896 82.04L515.424 82.376ZM510.88 81.976C510.608 83.224 510.048 84.52 509.248 85.32L510.72 86.376C511.664 85.384 512.16 83.88 512.48 82.504L510.88 81.976ZM515.696 71.4C514.624 75.448 512.304 79.496 508.224 81.544C508.544 81.96 509.024 82.728 509.248 83.208C513.792 80.76 516.24 76.456 517.664 71.864L515.696 71.4ZM519.2 74.024C519.024 75.096 518.736 76.424 518.496 77.304L520.16 77.56C520.432 76.632 520.736 75.224 520.96 74.024H519.2ZM520.24 76.968C520.08 78.024 519.808 79.32 519.552 80.216L521.232 80.44C521.488 79.528 521.776 78.136 522 76.968H520.24ZM527.616 74.52V75.816H531.328V74.52H527.616ZM527.568 84.536V85.912H532.32V84.536H527.568ZM526.736 78.312V79.448H531.856V78.312H526.736ZM525.968 76.392V78.712C525.968 80.536 525.792 83.112 524.368 84.952C524.704 85.16 525.392 85.784 525.648 86.12C527.28 84.056 527.6 80.856 527.6 78.744V76.392H525.968ZM526.896 76.392V77.72H530.896V80.072H526.848V81.4H532.608V76.392H526.896ZM526.88 82.024V86.424H528.496V83.4H531.2V86.36H532.864V82.024H526.88ZM533.568 73.368V82.424H535.376V73.368H533.568ZM537.072 71.736V84.136C537.072 84.408 536.96 84.504 536.672 84.504C536.368 84.52 535.424 84.52 534.464 84.472C534.736 85.016 535.024 85.896 535.088 86.424C536.496 86.44 537.472 86.376 538.096 86.056C538.72 85.752 538.928 85.224 538.928 84.136V71.736H537.072ZM528.336 71.624C527.568 72.92 526.208 74.424 524.288 75.528C524.656 75.816 525.216 76.472 525.456 76.904C527.632 75.496 529.04 73.848 530 72.552V72.008H529.408V71.624H528.336ZM528.752 71.624V72.968H529.088C530.128 73.736 531.504 75.112 532.176 75.912L533.408 74.504C532.624 73.672 531.168 72.472 530.048 71.624H528.752ZM545.664 74.968V76.616H548.928V74.968H545.664ZM548.4 74.968V75.352C548.336 81.864 548.256 83.992 548 84.424C547.888 84.648 547.776 84.712 547.6 84.712C547.376 84.712 547.056 84.712 546.656 84.664C546.88 85.096 547.04 85.768 547.072 86.232C547.584 86.232 548.064 86.232 548.416 86.152C548.832 86.088 549.104 85.928 549.376 85.464C549.76 84.824 549.84 82.504 549.92 75.704C549.92 75.512 549.936 74.968 549.936 74.968H548.4ZM546.4 71.416C546.448 77.336 546.352 82.376 544.368 85.368C544.704 85.608 545.376 86.2 545.6 86.456C547.696 83 547.856 77.896 547.872 71.416H546.4ZM542.24 71.416V74.104H544V71.416H542.24ZM540.704 73.416V74.984H545.456V73.416H540.704ZM540.528 77.832V79.4H545.6V77.832H540.528ZM541.04 75.352C541.28 76.152 541.456 77.224 541.424 77.912L542.832 77.512C542.8 76.824 542.624 75.768 542.336 74.984L541.04 75.352ZM543.856 74.952C543.776 75.72 543.536 76.856 543.344 77.592L544.576 77.896C544.816 77.24 545.088 76.2 545.392 75.256L543.856 74.952ZM540.4 81.224L540.72 82.888C542.128 82.632 543.936 82.328 545.648 82.008L545.536 80.472C543.648 80.76 541.712 81.064 540.4 81.224ZM551.904 71.416V74.104H553.68V71.416H551.904ZM551.904 78.424V86.456H553.68V78.424H551.904ZM550.192 73.4V74.968H555.28V73.4H550.192ZM550.128 77.816V79.384H555.504V77.816H550.128ZM550.256 81.08V82.664H555.312V81.08H550.256ZM550.544 75.336C550.816 76.152 550.992 77.224 550.992 77.912L552.384 77.512C552.368 76.824 552.16 75.752 551.856 74.968L550.544 75.336ZM553.568 74.888C553.472 75.672 553.216 76.808 553.024 77.544L554.288 77.864C554.544 77.192 554.832 76.168 555.136 75.224L553.568 74.888ZM542.24 78.312V81.208C542.24 82.488 542.064 84.232 540.496 85.208C540.896 85.496 541.424 86.088 541.664 86.456C543.536 85.112 544 82.984 544 81.224V78.312H542.24ZM562.656 71.8C562.544 73.896 562.768 81.208 556.336 84.776C556.992 85.224 557.616 85.816 557.952 86.312C564.496 82.296 564.704 74.488 564.848 71.8H562.656ZM564.784 72.216L562.928 72.408C563.056 74.056 563.36 82.872 570.256 86.296C570.544 85.768 571.12 85.128 571.728 84.664C565.168 81.592 564.832 73.608 564.784 72.216ZM576.288 73.304L571.84 85.256H573.648L578.112 73.304H576.288ZM582.082 71.528V80.696H584.082V71.528H582.082ZM587.762 71.528V80.696H589.778V71.528H587.762ZM578.642 79.432V81.304H593.282V79.432H578.642ZM579.186 74.504V76.344H592.786V74.504H579.186ZM587.042 82.808C588.466 83.912 590.37 85.48 591.266 86.44L593.17 85.32C592.146 84.344 590.162 82.856 588.802 81.848L587.042 82.808ZM582.786 81.912C581.954 82.984 580.242 84.312 578.738 85.096C579.186 85.432 579.906 86.04 580.306 86.44C581.858 85.544 583.618 84.088 584.818 82.696L582.786 81.912ZM597.922 75.128V76.744H605.922V75.128H597.922ZM598.674 77.96V84.408H600.434V77.96H598.674ZM599.634 77.96V79.528H603.442V81.752H599.634V83.352H605.218V77.96H599.634ZM595.138 72.168V86.456H596.994V73.992H607.938V72.168H595.138ZM606.866 72.168V84.216C606.866 84.488 606.77 84.584 606.498 84.6C606.226 84.6 605.298 84.6 604.45 84.568C604.738 85.048 605.026 85.928 605.09 86.456C606.45 86.456 607.33 86.408 607.938 86.088C608.562 85.784 608.754 85.24 608.754 84.248V72.168H606.866ZM613.554 74.52V75.816H617.266V74.52H613.554ZM613.506 84.536V85.912H618.258V84.536H613.506ZM612.674 78.312V79.448H617.794V78.312H612.674ZM611.906 76.392V78.712C611.906 80.536 611.73 83.112 610.306 84.952C610.642 85.16 611.33 85.784 611.586 86.12C613.218 84.056 613.538 80.856 613.538 78.744V76.392H611.906ZM612.834 76.392V77.72H616.834V80.072H612.786V81.4H618.546V76.392H612.834ZM612.818 82.024V86.424H614.434V83.4H617.138V86.36H618.802V82.024H612.818ZM619.506 73.368V82.424H621.314V73.368H619.506ZM623.01 71.736V84.136C623.01 84.408 622.898 84.504 622.61 84.504C622.306 84.52 621.362 84.52 620.402 84.472C620.674 85.016 620.962 85.896 621.026 86.424C622.434 86.44 623.41 86.376 624.034 86.056C624.658 85.752 624.866 85.224 624.866 84.136V71.736H623.01ZM614.274 71.624C613.506 72.92 612.146 74.424 610.226 75.528C610.594 75.816 611.154 76.472 611.394 76.904C613.57 75.496 614.978 73.848 615.938 72.552V72.008H615.346V71.624H614.274ZM614.69 71.624V72.968H615.026C616.066 73.736 617.442 75.112 618.114 75.912L619.345 74.504C618.562 73.672 617.106 72.472 615.986 71.624H614.69ZM631.602 74.968V76.616H634.866V74.968H631.602ZM634.338 74.968V75.352C634.274 81.864 634.194 83.992 633.938 84.424C633.826 84.648 633.714 84.712 633.538 84.712C633.314 84.712 632.994 84.712 632.594 84.664C632.818 85.096 632.978 85.768 633.01 86.232C633.522 86.232 634.002 86.232 634.354 86.152C634.77 86.088 635.042 85.928 635.314 85.464C635.698 84.824 635.778 82.504 635.858 75.704C635.858 75.512 635.874 74.968 635.874 74.968H634.338ZM632.338 71.416C632.386 77.336 632.29 82.376 630.306 85.368C630.641 85.608 631.314 86.2 631.538 86.456C633.634 83 633.794 77.896 633.81 71.416H632.338ZM628.178 71.416V74.104H629.938V71.416H628.178ZM626.642 73.416V74.984H631.394V73.416H626.642ZM626.465 77.832V79.4H631.538V77.832H626.465ZM626.978 75.352C627.218 76.152 627.394 77.224 627.362 77.912L628.77 77.512C628.738 76.824 628.562 75.768 628.274 74.984L626.978 75.352ZM629.794 74.952C629.714 75.72 629.474 76.856 629.282 77.592L630.514 77.896C630.754 77.24 631.026 76.2 631.33 75.256L629.794 74.952ZM626.338 81.224L626.658 82.888C628.066 82.632 629.874 82.328 631.586 82.008L631.474 80.472C629.586 80.76 627.65 81.064 626.338 81.224ZM637.842 71.416V74.104H639.618V71.416H637.842ZM637.842 78.424V86.456H639.618V78.424H637.842ZM636.13 73.4V74.968H641.218V73.4H636.13ZM636.066 77.816V79.384H641.442V77.816H636.066ZM636.194 81.08V82.664H641.25V81.08H636.194ZM636.482 75.336C636.754 76.152 636.93 77.224 636.93 77.912L638.322 77.512C638.306 76.824 638.098 75.752 637.794 74.968L636.482 75.336ZM639.506 74.888C639.41 75.672 639.154 76.808 638.962 77.544L640.226 77.864C640.482 77.192 640.77 76.168 641.074 75.224L639.506 74.888ZM628.178 78.312V81.208C628.178 82.488 628.002 84.232 626.434 85.208C626.834 85.496 627.362 86.088 627.602 86.456C629.474 85.112 629.938 82.984 629.938 81.224V78.312H628.178ZM648.594 71.8C648.482 73.896 648.706 81.208 642.274 84.776C642.93 85.224 643.554 85.816 643.89 86.312C650.434 82.296 650.642 74.488 650.786 71.8H648.594ZM650.722 72.216L648.866 72.408C648.994 74.056 649.298 82.872 656.194 86.296C656.482 85.768 657.058 85.128 657.666 84.664C651.106 81.592 650.77 73.608 650.722 72.216ZM661.026 87.208C663.01 86.616 664.194 85.144 664.194 83.336C664.194 81.992 663.586 81.128 662.466 81.128C661.602 81.128 660.882 81.672 660.882 82.568C660.882 83.496 661.618 84.008 662.418 84.008C662.77 84.008 663.106 83.896 663.362 83.656L662.482 82.216L662.594 83.8C662.594 84.712 661.858 85.496 660.514 85.928L661.026 87.208ZM681.698 71.384C681.154 72.76 680.13 74.376 678.53 75.592C678.914 75.816 679.474 76.376 679.73 76.744C681.506 75.272 682.642 73.48 683.426 71.672L681.698 71.384ZM681.938 72.408L681.17 73.688H685.378V72.408H681.938ZM679.89 74.728V78.664C679.89 80.696 679.73 83.416 678.258 85.32C678.641 85.496 679.362 85.992 679.65 86.296C681.266 84.232 681.538 80.984 681.538 78.68V74.728H679.89ZM685.218 75.112V76.088C685.218 77.144 685.49 77.416 686.738 77.416C686.978 77.416 687.538 77.416 687.778 77.416C688.626 77.416 688.946 77.16 689.058 76.296C688.69 76.248 688.146 76.088 687.874 75.928C687.826 76.36 687.762 76.44 687.57 76.44C687.458 76.44 687.09 76.44 687.01 76.44C686.802 76.44 686.754 76.408 686.754 76.088V75.112H685.218ZM681.266 79.208V80.248H689.09V79.208H681.266ZM682.29 80.68V81.688H688.002V80.68H682.29ZM682.29 82.12V83.112H688.002V82.12H682.29ZM682.61 77.768V78.76H687.778V77.768H682.61ZM680.546 74.424V75.752H689.138V74.424H680.546ZM682.722 85.16V86.168H687.634V85.16H682.722ZM681.858 83.56V86.456H683.49V84.552H686.818V86.44H688.514V83.56H681.858ZM684.946 72.408V72.712C684.77 73.272 684.402 74.184 684.066 74.744C684.418 74.936 684.978 75.288 685.298 75.528C685.762 74.92 686.402 73.912 686.786 73.128L685.602 72.344L685.346 72.408H684.946ZM683.074 75.176C682.962 76.104 682.61 76.68 681.266 77.032C681.554 77.24 681.922 77.704 682.034 78.024C683.81 77.48 684.322 76.584 684.498 75.176H683.074ZM674.258 79.464L674.69 81.304C676.098 80.904 677.858 80.392 679.506 79.88L679.25 78.152C677.442 78.664 675.538 79.176 674.258 79.464ZM674.514 74.456V76.216H679.41V74.456H674.514ZM676.21 71.432V84.408C676.21 84.632 676.13 84.68 675.938 84.68C675.746 84.696 675.186 84.696 674.61 84.664C674.834 85.192 675.058 85.976 675.106 86.456C676.146 86.456 676.834 86.392 677.314 86.088C677.81 85.8 677.97 85.304 677.97 84.408V71.432H676.21ZM703.57 71.64C701.554 72.36 698.37 72.984 695.49 73.336C695.698 73.784 695.97 74.52 696.05 74.984C699.026 74.664 702.45 74.104 704.978 73.256L703.57 71.64ZM695.026 78.104V79.944H705.362V78.104H695.026ZM695.682 84.056V85.896H705.186V84.056H695.682ZM699.394 73.992V84.632H701.346V73.992H699.394ZM692.594 76.072V86.424H694.498V74.232L694.482 74.2L692.594 76.072ZM694.194 71.464C693.282 73.832 691.762 76.184 690.162 77.656C690.514 78.152 691.09 79.208 691.282 79.688C693.154 77.832 694.978 74.872 696.082 72.072L694.194 71.464ZM707.058 72.84V74.424H713.154V72.84H707.058ZM706.882 81.88V83.496H713.298V81.88H706.882ZM713.49 74.504V76.28H719.298V74.504H713.49ZM706.418 75.448V77.064H713.794V75.448H706.418ZM706.738 79.144V80.76H713.49V79.144H706.738ZM709.266 71.4V76.072H711.042V71.4H709.266ZM709.266 79.672V86.392H711.042V79.672H709.266ZM713.186 79.288C714.77 80.28 716.738 81.768 717.618 82.824L718.706 81.256C717.778 80.216 715.746 78.824 714.178 77.912L713.186 79.288ZM711.474 76.84C711.346 77.48 711.042 78.424 710.802 79.032L712.162 79.416C712.434 78.84 712.754 78.04 713.074 77.224L711.474 76.84ZM707.41 77.24C707.698 77.96 707.97 78.904 708.034 79.48L709.538 79.032C709.458 78.44 709.154 77.544 708.834 76.856L707.41 77.24ZM718.338 74.504C718.322 80.04 718.146 85.672 719.81 86.344C720.834 86.776 721.65 86.168 721.778 83.384C721.506 83.16 721.01 82.488 720.706 82.056C720.69 83.288 720.626 84.552 720.53 84.52C720.002 84.328 720.034 78.856 720.178 74.504H718.338ZM715.394 71.432V76.344C715.394 79.112 715.09 82.888 712.034 85.272C712.482 85.544 713.186 86.104 713.506 86.456C716.77 83.8 717.186 79.592 717.186 76.36V71.432H715.394ZM729.074 72.328V74.152H736.898V72.328H729.074ZM733.138 77.304V84.168C733.138 84.408 733.042 84.472 732.738 84.488C732.45 84.488 731.394 84.488 730.482 84.44C730.738 85 730.994 85.832 731.058 86.392C732.498 86.392 733.506 86.376 734.194 86.088C734.898 85.784 735.106 85.24 735.106 84.216V77.304H733.138ZM728.386 76.76V78.584H737.314V76.76H728.386ZM724.802 78.648V86.456H726.722V77.064L726.482 76.968L724.802 78.648ZM726.61 74.904C725.554 76.712 723.81 78.568 722.178 79.72C722.562 80.104 723.218 80.968 723.49 81.368C725.202 79.96 727.17 77.72 728.434 75.592L726.61 74.904ZM726.002 71.416C725.218 72.536 723.682 73.976 722.354 74.84C722.674 75.224 723.17 75.976 723.426 76.408C724.946 75.352 726.674 73.688 727.842 72.168L726.002 71.416ZM738.674 78.984V80.664H753.186V78.984H738.674ZM742.418 74.376V75.864H751.058V74.376H742.418ZM742.418 76.664V78.152H751.058V76.664H742.418ZM739.378 84.584L739.81 86.36C741.762 86.056 744.418 85.656 746.882 85.256L746.802 83.56C744.146 83.944 741.266 84.376 739.378 84.584ZM746.61 79.448L744.85 79.88C746.146 83.384 748.354 85.544 752.274 86.472C752.53 85.944 753.074 85.144 753.49 84.744C749.874 84.072 747.634 82.248 746.61 79.448ZM751.154 80.456C750.258 81.224 748.77 82.2 747.666 82.776L748.946 83.768C750.066 83.24 751.522 82.392 752.69 81.544L751.154 80.456ZM741.362 71.96V79.688H743.33V73.544H751.506V71.96H741.362ZM741.346 79.48V85.016L743.33 84.808V79.48H741.346ZM755.042 74.264V76.152H768.834V74.264H755.042ZM754.706 83.864V85.848H769.17V83.864H754.706ZM759.25 75.672V84.872H761.154V75.672H759.25ZM762.674 75.672V84.84H764.61V75.672H762.674ZM766.354 77.224C766.05 78.824 765.426 80.92 764.85 82.248L766.594 82.712C767.186 81.448 767.874 79.496 768.434 77.704L766.354 77.224ZM765.042 71.4C764.722 72.296 764.082 73.512 763.554 74.312L765.314 74.856C765.874 74.136 766.578 73.048 767.186 71.96L765.042 71.4ZM755.666 77.784C756.306 79.336 756.85 81.4 756.962 82.728L758.818 82.248C758.658 80.888 758.098 78.904 757.394 77.352L755.666 77.784ZM757.122 72.104C757.682 72.904 758.258 74.04 758.466 74.76L760.274 74.008C760.034 73.288 759.442 72.232 758.85 71.448L757.122 72.104ZM773.074 79.864V81.512H783.922V79.864H773.074ZM770.914 74.024V75.752H781.506V74.024H770.914ZM775.634 76.968V78.616H782.898V76.968H775.634ZM783.186 79.864V80.136C782.978 83.048 782.706 84.264 782.386 84.584C782.226 84.728 782.066 84.76 781.794 84.76C781.474 84.776 780.802 84.76 780.098 84.68C780.402 85.16 780.626 85.912 780.642 86.44C781.474 86.456 782.242 86.456 782.69 86.408C783.218 86.344 783.602 86.2 783.986 85.784C784.498 85.24 784.786 83.848 785.042 80.6C785.074 80.36 785.106 79.864 785.106 79.864H783.186ZM779.778 82.072C780.178 82.744 780.594 83.672 780.738 84.248L782.13 83.736C781.97 83.16 781.538 82.264 781.106 81.608L779.778 82.072ZM772.706 72.088C773.266 72.744 773.906 73.672 774.161 74.264L776.002 73.512C775.682 72.904 774.994 72.024 774.434 71.416L772.706 72.088ZM774.946 82.504C775.202 83.56 775.362 84.936 775.314 85.816L776.962 85.592C776.962 84.696 776.802 83.352 776.498 82.312L774.946 82.504ZM777.362 82.376C777.714 83.288 778.05 84.488 778.146 85.272L779.698 84.872C779.57 84.104 779.218 82.936 778.834 82.04L777.362 82.376ZM772.818 81.976C772.546 83.224 771.986 84.52 771.186 85.32L772.658 86.376C773.602 85.384 774.098 83.88 774.418 82.504L772.818 81.976ZM777.634 71.4C776.562 75.448 774.242 79.496 770.162 81.544C770.482 81.96 770.962 82.728 771.186 83.208C775.73 80.76 778.178 76.456 779.602 71.864L777.634 71.4ZM781.138 74.024C780.962 75.096 780.674 76.424 780.434 77.304L782.098 77.56C782.37 76.632 782.674 75.224 782.898 74.024H781.138ZM782.178 76.968C782.018 78.024 781.746 79.32 781.49 80.216L783.17 80.44C783.426 79.528 783.714 78.136 783.938 76.968H782.178ZM792.338 77.256C791.65 79.544 790.354 82.488 789.202 84.424L790.978 84.984C792.162 83.144 793.586 80.328 794.642 77.816L792.338 77.256ZM787.346 83.832L787.602 85.864C790.641 85.704 795.09 85.464 799.202 85.176L799.25 83.304C795.058 83.512 790.37 83.736 787.346 83.832ZM795.442 80.792C796.786 82.552 798.338 84.984 799.01 86.52L800.994 85.464C800.226 83.928 798.722 81.656 797.314 79.928L795.442 80.792ZM790.641 71.784C789.81 74.008 788.289 76.2 786.626 77.512C787.154 77.832 788.082 78.536 788.498 78.936C790.13 77.4 791.81 74.92 792.834 72.392L790.641 71.784ZM797.09 71.8L795.17 72.584C796.354 74.808 798.194 77.336 799.698 78.952C800.066 78.44 800.802 77.672 801.33 77.272C799.858 75.928 798.034 73.688 797.09 71.8ZM803.202 72.376V74.2H815.106V72.376H803.202ZM803.346 75.352V77.016H812.818V75.352H803.346ZM814.434 72.376V83.976C814.434 84.28 814.322 84.36 814.034 84.36C813.714 84.376 812.674 84.376 811.762 84.328C812.034 84.872 812.322 85.832 812.386 86.408C813.842 86.408 814.85 86.36 815.522 86.04C816.21 85.704 816.402 85.112 816.402 84.008V72.376H814.434ZM804.178 78.2V84.808H806.049V78.2H804.178ZM805.842 78.2V79.864H810.098V81.992H805.842V83.64H811.986V78.2H805.842ZM818.658 84.472V85.976H833.234V84.472H818.658ZM818.754 74.264V75.768H833.122V74.264H818.754ZM819.842 82.184V83.64H832.194V82.184H819.842ZM824.898 72.904V85.24H826.818V72.904H824.898ZM830.77 71.432C828.05 71.864 823.698 72.136 819.954 72.216C820.114 72.6 820.322 73.256 820.338 73.688C824.082 73.656 828.53 73.416 831.65 72.904L830.77 71.432ZM822.242 79.496H829.634V80.216H822.242V79.496ZM822.242 77.624H829.634V78.344H822.242V77.624ZM820.37 76.36V81.48H831.602V76.36H820.37ZM834.834 75.72V77.704H849.074V75.72H834.834ZM843.042 76.52L841.106 76.968C842.322 81.368 844.322 84.68 847.986 86.392C848.306 85.832 848.946 85 849.426 84.568C846.034 83.224 844.002 80.184 843.042 76.52ZM840.834 71.416C840.786 75.752 841.074 81.832 834.514 84.76C835.074 85.176 835.666 85.864 835.97 86.392C842.834 83.08 842.866 76.296 842.946 71.416H840.834ZM855.778 73.88V75.672H862.354V79.352H864.226V73.88H855.778ZM854.978 78.584V80.392H865.442V78.584H854.978ZM858.45 71.416V77C858.45 80.04 858.05 83.08 854.146 85.128C854.641 85.432 855.394 86.088 855.746 86.488C859.922 84.168 860.37 80.504 860.37 77.016V71.416H858.45ZM861.234 79.592L859.458 80.024C860.322 83 861.794 85.272 864.258 86.472C864.546 85.944 865.154 85.176 865.602 84.792C863.378 83.88 861.922 81.928 861.234 79.592ZM851.298 72.904C852.306 73.352 853.57 74.088 854.161 74.648L855.266 73.08C854.626 72.536 853.33 71.88 852.338 71.496L851.298 72.904ZM850.37 77.256C851.394 77.688 852.674 78.392 853.282 78.936L854.386 77.336C853.73 76.808 852.402 76.168 851.41 75.816L850.37 77.256ZM850.834 85.016L852.498 86.232C853.394 84.648 854.338 82.792 855.122 81.096L853.65 79.896C852.77 81.768 851.634 83.8 850.834 85.016ZM866.93 75.944V77.592H880.93V75.944H866.93ZM873.074 75.08V86.44H875.138V75.08H873.074ZM867.97 78.376V82.824H870.002V79.992H879.154V78.376H867.97ZM878.146 78.376V81.112C878.146 81.272 878.082 81.32 877.89 81.32C877.714 81.336 877.058 81.336 876.53 81.304C876.738 81.704 877.042 82.296 877.154 82.776C878.082 82.776 878.818 82.776 879.394 82.536C879.97 82.296 880.13 81.912 880.13 81.112V78.376H878.146ZM873.282 80.888C871.954 82.552 869.346 83.848 866.53 84.392C866.946 84.792 867.474 85.528 867.73 86.008C870.61 85.24 873.186 83.64 874.722 81.432L873.282 80.888ZM874.658 80.904L873.634 81.8C874.834 83.352 877.362 85.16 880.338 85.896C880.61 85.4 881.17 84.632 881.554 84.216C878.498 83.672 875.826 82.264 874.658 80.904ZM868.706 72.664V74.264H873.714V72.664H868.706ZM875.138 72.664V74.264H881.202V72.664H875.138ZM868.786 71.304C868.274 72.616 867.346 73.96 866.322 74.808C866.77 75.048 867.554 75.56 867.922 75.864C868.93 74.888 869.97 73.336 870.626 71.8L868.786 71.304ZM875.234 71.304C874.786 72.648 873.906 73.976 872.882 74.792C873.346 75.048 874.146 75.576 874.498 75.896C875.522 74.92 876.53 73.368 877.122 71.768L875.234 71.304ZM869.346 73.928C869.762 74.584 870.21 75.48 870.386 76.024L872.034 75.4C871.842 74.84 871.346 73.992 870.93 73.368L869.346 73.928ZM876.322 73.8C876.77 74.456 877.266 75.352 877.458 75.928L879.17 75.368C878.946 74.792 878.402 73.928 877.938 73.304L876.322 73.8ZM884.226 74.008V75.688H887.394V83.096H884.226V84.792H889.138V74.008H884.226ZM883.106 74.008V85.976H884.85V74.008H883.106ZM884.146 78.28V79.944H888.242V78.28H884.146ZM885.378 71.4C885.298 72.28 885.074 73.512 884.85 74.344L886.386 74.68C886.706 73.928 887.106 72.792 887.474 71.704L885.378 71.4ZM891.25 73.896V75.64H895.922V73.896H891.25ZM895.266 73.896V74.264C895.09 80.936 894.882 83.688 894.37 84.232C894.162 84.456 893.986 84.52 893.666 84.52C893.266 84.52 892.306 84.504 891.266 84.424C891.618 84.936 891.874 85.752 891.906 86.28C892.834 86.328 893.81 86.344 894.418 86.248C895.074 86.152 895.522 85.976 895.97 85.352C896.626 84.504 896.818 81.96 897.026 74.76C897.042 74.52 897.042 73.896 897.042 73.896H895.266ZM891.298 71.416C890.786 73.544 889.874 75.72 888.802 77.064C889.25 77.32 890.034 77.864 890.385 78.184C891.474 76.648 892.514 74.216 893.138 71.848L891.298 71.416ZM890.514 78.504C891.282 79.688 892.29 81.256 892.722 82.232L894.354 81.24C893.858 80.296 892.802 78.76 892.018 77.656L890.514 78.504ZM899.442 74.44V76.312H912.37V74.44H899.442ZM900.289 79.096V80.952H911.602V79.096H900.289ZM898.754 84.056V85.944H913.154V84.056H898.754ZM904.882 76.072V85.064H906.994V76.072H904.882ZM903.458 72.488C904.514 73.24 905.826 74.328 906.434 75.064L908.13 73.832C907.442 73.08 906.066 72.04 905.042 71.384L903.458 72.488ZM914.594 80.088V81.64H929.282V80.088H914.594ZM914.898 71.976V73.64H928.898V71.976H914.898ZM919.922 78.552C918.994 80.12 917.586 82.184 916.594 83.464L918.45 84.024C919.426 82.744 920.786 80.728 921.81 79.032L919.922 78.552ZM924.562 80.664C923.282 83.736 920.274 84.6 914.882 84.824C915.186 85.24 915.474 85.912 915.602 86.472C921.538 86.008 924.834 84.92 926.418 81.144L924.562 80.664ZM917.698 83.592C921.522 84.408 925.266 85.56 927.586 86.504L928.738 84.952C926.338 84.072 922.354 82.968 918.674 82.216L917.698 83.592ZM919.106 72.632V78.104H920.914V72.632H919.106ZM922.738 72.632V78.104H924.546V72.632H922.738ZM917.426 76.056H926.466V77.56H917.426V76.056ZM915.634 74.552V79.064H928.386V74.552H915.634ZM935.778 73.88V75.672H942.354V79.352H944.226V73.88H935.778ZM934.978 78.584V80.392H945.442V78.584H934.978ZM938.45 71.416V77C938.45 80.04 938.05 83.08 934.146 85.128C934.641 85.432 935.394 86.088 935.746 86.488C939.922 84.168 940.37 80.504 940.37 77.016V71.416H938.45ZM941.234 79.592L939.458 80.024C940.322 83 941.794 85.272 944.258 86.472C944.546 85.944 945.154 85.176 945.602 84.792C943.378 83.88 941.922 81.928 941.234 79.592ZM931.298 72.904C932.306 73.352 933.57 74.088 934.161 74.648L935.266 73.08C934.626 72.536 933.33 71.88 932.338 71.496L931.298 72.904ZM930.37 77.256C931.394 77.688 932.674 78.392 933.282 78.936L934.386 77.336C933.73 76.808 932.402 76.168 931.41 75.816L930.37 77.256ZM930.834 85.016L932.498 86.232C933.394 84.648 934.338 82.792 935.122 81.096L933.65 79.896C932.77 81.768 931.634 83.8 930.834 85.016ZM946.93 75.944V77.592H960.93V75.944H946.93ZM953.074 75.08V86.44H955.138V75.08H953.074ZM947.97 78.376V82.824H950.002V79.992H959.154V78.376H947.97ZM958.146 78.376V81.112C958.146 81.272 958.082 81.32 957.89 81.32C957.714 81.336 957.058 81.336 956.53 81.304C956.738 81.704 957.042 82.296 957.154 82.776C958.082 82.776 958.818 82.776 959.394 82.536C959.97 82.296 960.13 81.912 960.13 81.112V78.376H958.146ZM953.282 80.888C951.954 82.552 949.346 83.848 946.53 84.392C946.946 84.792 947.474 85.528 947.73 86.008C950.61 85.24 953.186 83.64 954.722 81.432L953.282 80.888ZM954.658 80.904L953.634 81.8C954.834 83.352 957.362 85.16 960.338 85.896C960.61 85.4 961.17 84.632 961.554 84.216C958.498 83.672 955.826 82.264 954.658 80.904ZM948.706 72.664V74.264H953.714V72.664H948.706ZM955.138 72.664V74.264H961.202V72.664H955.138ZM948.786 71.304C948.274 72.616 947.346 73.96 946.322 74.808C946.77 75.048 947.554 75.56 947.922 75.864C948.93 74.888 949.97 73.336 950.626 71.8L948.786 71.304ZM955.234 71.304C954.786 72.648 953.906 73.976 952.882 74.792C953.346 75.048 954.146 75.576 954.498 75.896C955.522 74.92 956.53 73.368 957.122 71.768L955.234 71.304ZM949.346 73.928C949.762 74.584 950.21 75.48 950.386 76.024L952.034 75.4C951.842 74.84 951.346 73.992 950.93 73.368L949.346 73.928ZM956.322 73.8C956.77 74.456 957.266 75.352 957.458 75.928L959.17 75.368C958.946 74.792 958.402 73.928 957.938 73.304L956.322 73.8ZM962.722 76.264V77.96H977.122V76.264H962.722ZM964.114 73.144V74.808H973.266V73.144H964.114ZM966.93 81.848V83.288H974.082V81.848H966.93ZM966.93 84.36V85.976H974.082V84.36H966.93ZM967.89 71.416V77.208H969.778V71.416H967.89ZM974.93 71.88C972.13 75.896 967.426 78.952 962.226 80.616C962.578 81 963.154 81.8 963.378 82.216C968.562 80.312 973.442 77.096 976.578 72.728L974.93 71.88ZM965.858 79.24V86.456H967.778V80.808H973.298V86.392H975.298V79.24H965.858ZM981.026 81.048C979.602 81.048 978.434 82.2 978.434 83.624C978.434 85.064 979.602 86.216 981.026 86.216C982.466 86.216 983.618 85.064 983.618 83.624C983.618 82.2 982.466 81.048 981.026 81.048ZM981.026 85.064C980.242 85.064 979.586 84.424 979.586 83.624C979.586 82.84 980.242 82.2 981.026 82.2C981.826 82.2 982.466 82.84 982.466 83.624C982.466 84.424 981.826 85.064 981.026 85.064Z" fill="#4B4B4B"/>
<circle cx="410" cy="122" r="7" fill="#0088CC" fill-opacity="0.25"/>
<path d="M406 121L409.214 123.41C409.65 123.738 410.268 123.655 410.603 123.224L417 115" stroke="#0088CC" stroke-width="1.2" stroke-linecap="round"/>
<path d="M433.008 117.752H438.976V118.712H433.008V117.752ZM433.008 120.056H438.976V121.032H433.008V120.056ZM433.008 115.448H438.976V116.392H433.008V115.448ZM431.12 113.992V122.472H440.96V113.992H431.12ZM428.864 123.224V125H443.152V123.224H428.864ZM436.832 126.344C438.56 126.968 440.384 127.832 441.424 128.44L443.392 127.144C442.176 126.552 440.096 125.688 438.304 125.064L436.832 126.344ZM433.504 124.968C432.416 125.656 430.32 126.52 428.672 126.952C429.104 127.368 429.68 128.024 429.984 128.44C431.632 127.944 433.744 127.08 435.168 126.264L433.504 124.968ZM444.864 115.352V117.144H459.136V115.352H444.864ZM449.184 121.112V122.712H456.144V121.112H449.184ZM447.76 118.408V128.424H449.664V120.088H455.856V118.408H447.76ZM455.472 118.408V126.328C455.472 126.552 455.376 126.632 455.12 126.632C454.848 126.632 453.904 126.648 453.072 126.6C453.328 127.096 453.584 127.912 453.664 128.44C454.96 128.44 455.872 128.424 456.512 128.136C457.168 127.832 457.344 127.304 457.344 126.36V118.408H455.472ZM449.824 113.4C449.024 116.52 447.232 119.96 444.384 121.832C444.768 122.2 445.376 122.888 445.648 123.32C448.768 121.144 450.688 117.464 451.808 113.848L449.824 113.4ZM449.184 123.752V125.352H456.144V123.752H449.184ZM463.616 116.52V117.816H467.328V116.52H463.616ZM463.568 126.536V127.912H468.32V126.536H463.568ZM462.736 120.312V121.448H467.856V120.312H462.736ZM461.968 118.392V120.712C461.968 122.536 461.792 125.112 460.368 126.952C460.704 127.16 461.392 127.784 461.648 128.12C463.28 126.056 463.6 122.856 463.6 120.744V118.392H461.968ZM462.896 118.392V119.72H466.896V122.072H462.848V123.4H468.608V118.392H462.896ZM462.88 124.024V128.424H464.496V125.4H467.2V128.36H468.864V124.024H462.88ZM469.568 115.368V124.424H471.376V115.368H469.568ZM473.072 113.736V126.136C473.072 126.408 472.96 126.504 472.672 126.504C472.368 126.52 471.424 126.52 470.464 126.472C470.736 127.016 471.024 127.896 471.088 128.424C472.496 128.44 473.472 128.376 474.096 128.056C474.72 127.752 474.928 127.224 474.928 126.136V113.736H473.072ZM464.336 113.624C463.568 114.92 462.208 116.424 460.288 117.528C460.656 117.816 461.216 118.472 461.456 118.904C463.632 117.496 465.04 115.848 466 114.552V114.008H465.408V113.624H464.336ZM464.752 113.624V114.968H465.088C466.128 115.736 467.504 117.112 468.176 117.912L469.408 116.504C468.624 115.672 467.168 114.472 466.048 113.624H464.752ZM476.896 123.208V124.776H491.168V123.208H476.896ZM476.928 116.024V117.608H491.104V116.024H476.928ZM477.584 118.888V120.392H490.496V118.888H477.584ZM478.384 121.096V122.488H489.744V121.096H478.384ZM483.024 119.656V128.44H484.928V119.656H483.024ZM481.632 113.4V116.776H483.424V113.4H481.632ZM484.592 113.4V116.664H486.416V113.4H484.592ZM482.672 123.912C481.36 125.128 478.816 126.184 476.4 126.648C476.816 127.048 477.376 127.784 477.632 128.248C480.096 127.608 482.656 126.248 484.176 124.584L482.672 123.912ZM485.312 123.864L483.824 124.456C485.328 126.264 487.776 127.624 490.304 128.264C490.592 127.736 491.168 126.936 491.6 126.536C489.104 126.12 486.608 125.128 485.312 123.864ZM488.272 113.528C488.048 114.232 487.632 115.208 487.264 115.864L488.816 116.344C489.232 115.752 489.776 114.888 490.288 114.008L488.272 113.528ZM486.16 116.968C486 117.56 485.664 118.376 485.376 118.952L487.008 119.416C487.344 118.904 487.76 118.2 488.192 117.432L486.16 116.968ZM478.08 114.04C478.512 114.776 479.024 115.752 479.2 116.376L480.944 115.752C480.72 115.128 480.192 114.168 479.728 113.48L478.08 114.04ZM480.112 117.624C480.352 118.088 480.624 118.76 480.72 119.176L482.672 118.84C482.544 118.408 482.24 117.784 481.968 117.336L480.112 117.624ZM493.408 114.296V115.592H499.376V114.296H493.408ZM500.192 115.48V117.16H505.072V115.48H500.192ZM492.864 116.36V117.688H499.84V116.36H492.864ZM495.536 113.448V117.048H497.248V113.448H495.536ZM495.536 119.64V123.528H497.248V119.64H495.536ZM493.2 120.52V121.88H499.424V120.52H493.2ZM492.72 123.048L492.848 124.6C494.736 124.424 497.328 124.168 499.824 123.912L499.808 122.472C497.232 122.712 494.512 122.936 492.72 123.048ZM496.72 117.208V118.36C496.72 119.496 496.944 119.832 498.032 119.832C498.24 119.832 498.624 119.832 498.832 119.832C499.584 119.832 499.936 119.528 500.064 118.392C499.696 118.312 499.152 118.136 498.912 117.928C498.864 118.584 498.816 118.664 498.64 118.664C498.56 118.664 498.336 118.664 498.272 118.664C498.096 118.664 498.08 118.648 498.08 118.36V117.208H496.72ZM501.632 113.416C501.584 118.232 501.616 121.512 499.344 123.464C499.744 123.72 500.256 124.312 500.496 124.712C503.152 122.488 503.296 118.712 503.344 113.416H501.632ZM499.872 119.496C501.12 120.28 502.768 121.464 503.52 122.296L504.336 120.664C503.552 119.896 501.872 118.792 500.64 118.072L499.872 119.496ZM504.16 115.48V122.2C504.16 123.384 504.256 123.72 504.512 123.992C504.784 124.264 505.184 124.392 505.536 124.392C505.744 124.392 506.032 124.392 506.256 124.392C506.576 124.392 506.896 124.312 507.12 124.136C507.344 123.976 507.504 123.72 507.584 123.336C507.664 122.952 507.744 121.96 507.76 121.144C507.36 121.016 506.864 120.776 506.56 120.504C506.56 121.336 506.544 121.992 506.512 122.296C506.496 122.584 506.48 122.728 506.416 122.792C506.384 122.856 506.32 122.872 506.24 122.872C506.192 122.872 506.112 122.872 506.064 122.872C506 122.872 505.952 122.856 505.92 122.792C505.888 122.728 505.888 122.52 505.888 122.152V115.48H504.16ZM497.232 125.448C497.392 126.376 497.488 127.576 497.488 128.312L499.408 128.072C499.392 127.352 499.232 126.184 499.024 125.272L497.232 125.448ZM500.432 125.432C500.784 126.344 501.104 127.544 501.2 128.28L503.12 127.928C502.992 127.192 502.624 126.024 502.24 125.144L500.432 125.432ZM503.632 125.4C504.336 126.344 505.136 127.656 505.488 128.472L507.456 127.832C507.056 127 506.176 125.752 505.488 124.84L503.632 125.4ZM494.432 124.904C494.016 125.976 493.28 127.08 492.56 127.704L494.4 128.44C495.152 127.688 495.888 126.488 496.304 125.384L494.432 124.904ZM494.512 117.288C494.432 118.312 494.096 118.824 492.512 119.128C492.8 119.384 493.168 119.912 493.296 120.248C495.344 119.768 495.84 118.84 495.968 117.288H494.512ZM514.368 116.312V120.024H516.112V118.056H521.472V120.008H523.296V116.312H514.368ZM517.728 113.416C517.696 119.336 517.92 124.36 512.88 127C513.376 127.352 513.936 127.992 514.224 128.472C519.584 125.48 519.6 119.784 519.632 113.416H517.728ZM518.24 120.056V125.768C518.24 127.608 518.624 128.232 520.224 128.232C520.512 128.232 521.296 128.232 521.6 128.232C522.976 128.232 523.44 127.448 523.616 124.68C523.088 124.552 522.256 124.216 521.856 123.88C521.808 126.04 521.728 126.408 521.392 126.408C521.248 126.408 520.704 126.408 520.56 126.408C520.256 126.408 520.208 126.328 520.208 125.752V120.056H518.24ZM510.704 113.416V128.44H512.592V113.416H510.704ZM509.088 116.584C509.056 118.024 508.832 119.784 508.304 120.76L509.648 121.368C510.24 120.184 510.464 118.312 510.448 116.76L509.088 116.584ZM512.32 116.616C512.832 117.624 513.328 118.936 513.472 119.768L514.72 119.176C514.56 118.376 514.032 117.08 513.488 116.104L512.32 116.616ZM528.08 128.104L529.792 126.632C528.976 125.64 527.44 124.072 526.304 123.144L524.624 124.584C525.744 125.544 527.104 126.92 528.08 128.104ZM548.736 118.2V119.64H551.968V118.2H548.736ZM547.536 122.872V124.152H552.752V122.872H547.536ZM542.08 113.976V115.48H546.464V113.976H542.08ZM545.968 113.976V114.248C545.104 116.296 542.768 117.976 540.336 118.696C540.672 119.032 541.136 119.688 541.36 120.104C544.096 119.112 546.608 117.288 547.792 114.488L546.592 113.912L546.288 113.976H545.968ZM549.376 113.416L547.84 113.864C549.136 116.776 551.344 118.888 554.48 119.896C554.736 119.432 555.232 118.744 555.616 118.376C552.656 117.608 550.448 115.784 549.376 113.416ZM551.776 113.512C551.28 114.104 550.4 114.92 549.776 115.4L550.88 116.248C551.536 115.8 552.4 115.144 553.152 114.488L551.776 113.512ZM553.84 115.112C553.328 115.704 552.416 116.52 551.76 117L552.912 117.848C553.584 117.416 554.464 116.744 555.216 116.072L553.84 115.112ZM542.48 118.296V119.736H545.152V122.472H546.832V118.296H542.48ZM542.176 120.872C541.984 122.152 541.632 123.784 541.344 124.84L542.896 125.096C543.184 123.992 543.52 122.264 543.76 120.872H542.176ZM545.136 123.32V123.544C544.992 125.576 544.848 126.456 544.592 126.696C544.448 126.824 544.272 126.84 544 126.84C543.648 126.84 542.864 126.824 542.048 126.744C542.352 127.192 542.56 127.864 542.608 128.376C543.456 128.392 544.288 128.392 544.752 128.36C545.296 128.296 545.68 128.184 546.032 127.816C546.464 127.368 546.656 126.296 546.816 123.976C546.848 123.768 546.864 123.32 546.864 123.32H545.136ZM548 118.2V119.336C548 120.088 547.84 120.936 546.64 121.624C546.96 121.848 547.6 122.488 547.84 122.824C549.28 121.912 549.6 120.552 549.6 119.368V118.2H548ZM552.368 122.872V123.08C551.584 125.368 549.408 126.6 546.592 127.048C546.88 127.4 547.232 128.04 547.392 128.44C550.624 127.752 553.04 126.312 554.048 123.176L552.992 122.824L552.704 122.872H552.368ZM549.472 124.04L548.016 124.424C549.136 126.552 551.088 127.896 553.888 128.44C554.128 127.976 554.608 127.272 554.992 126.888C552.384 126.552 550.4 125.576 549.472 124.04ZM542.992 120.872L542.736 122.28H545.728V120.872H542.992ZM542.544 123.32L542.272 124.712H545.616V123.32H542.544ZM551.04 118.2V120.584C551.04 121.48 551.152 121.784 551.408 122.056C551.664 122.312 552.112 122.408 552.48 122.408C552.704 122.408 553.056 122.408 553.296 122.408C553.52 122.408 553.872 122.376 554.08 122.296C554.336 122.216 554.544 122.072 554.656 121.864C554.784 121.656 554.848 121.224 554.896 120.808C554.464 120.68 553.856 120.376 553.568 120.12C553.552 120.456 553.536 120.712 553.504 120.84C553.456 120.952 553.408 121.016 553.344 121.032C553.312 121.048 553.216 121.048 553.136 121.048C553.056 121.048 552.944 121.048 552.864 121.048C552.784 121.048 552.736 121.032 552.688 120.984C552.656 120.936 552.656 120.808 552.656 120.616V118.2H551.04ZM541.552 116.504C542.192 116.872 543.04 117.432 543.424 117.816L544.56 116.696C544.128 116.328 543.28 115.816 542.624 115.496L541.552 116.504ZM560.32 119.528V121.128H570.592V119.528H560.32ZM559.888 122.216V123.832H571.312V122.216H559.888ZM562.352 118.2V122.968H564.112V118.2H562.352ZM561.552 122.808V126.84H563.312V122.808H561.552ZM566.496 118.2V122.952H568.288V118.2H566.496ZM558.064 114.104V118.856C558.064 121.416 557.936 125.032 556.336 127.496C556.816 127.688 557.68 128.184 558.064 128.488C559.744 125.848 560 121.672 560 118.856V114.104H558.064ZM559.248 114.104V115.72H568.512V116.856H559.248V118.472H570.448V114.104H559.248ZM559.904 126.472L560.176 128.232C561.84 127.976 564.08 127.656 566.16 127.304L566.08 125.656C563.824 125.992 561.472 126.312 559.904 126.472ZM566.048 122.888L564.464 123.224C565.504 125.944 567.328 127.704 570.352 128.456C570.592 127.976 571.104 127.256 571.488 126.872C568.704 126.36 566.896 124.952 566.048 122.888ZM569.296 123.624C568.656 124.152 567.552 124.872 566.752 125.288L567.984 126.2C568.8 125.816 569.872 125.224 570.736 124.6L569.296 123.624ZM579.776 118.52V120.728H581.088V118.52H579.776ZM579.376 120.6L579.84 121.848C580.608 121.576 581.408 121.272 582.224 120.968L582 119.816C580.992 120.12 580.08 120.408 579.376 120.6ZM578.528 124.264V125.56H585.632V124.264H578.528ZM578.528 126.44V127.896H585.632V126.44H578.528ZM576.88 114.472V115.8H581.744V114.472H576.88ZM577.36 116.76V118.104H581.76V116.76H577.36ZM577.648 122.008V128.456H579.44V123.448H584.736V128.392H586.608V122.008H577.648ZM578.768 113.496V116.584C578.768 118.024 578.448 119.96 575.968 121.048C576.304 121.336 576.752 121.848 576.96 122.184C579.76 120.792 580.304 118.536 580.304 116.584V113.496H578.768ZM576.848 116.04C576.72 116.84 576.528 117.848 576.352 118.52L577.584 118.712C577.744 118.024 577.936 117.032 578.096 116.152L576.848 116.04ZM582.144 114.472V115.8H587.248V114.472H582.144ZM582.432 116.76V118.104H587.376V116.76H582.432ZM584.048 113.496V116.44C584.048 117.848 583.808 119.784 581.6 120.888C581.936 121.16 582.416 121.688 582.624 122.008C585.088 120.584 585.584 118.296 585.584 116.456V113.496H584.048ZM582.16 116.056C582.064 116.84 581.904 117.832 581.744 118.488L582.96 118.68C583.104 118.008 583.28 117.032 583.392 116.152L582.16 116.056ZM573.056 114.952C573.936 115.368 575.04 116.072 575.552 116.584L576.688 115.048C576.128 114.552 575.008 113.928 574.128 113.56L573.056 114.952ZM572.432 119.224C573.328 119.624 574.432 120.28 574.944 120.776L576.064 119.224C575.52 118.728 574.384 118.152 573.488 117.816L572.432 119.224ZM572.704 127.288L574.448 128.264C575.104 126.696 575.792 124.84 576.352 123.128L574.8 122.136C574.16 124.008 573.328 126.04 572.704 127.288ZM584.464 118.52V120.056C584.464 121.24 584.672 121.624 585.728 121.624C585.936 121.624 586.288 121.624 586.496 121.624C587.28 121.624 587.632 121.224 587.744 119.592C587.392 119.496 586.832 119.288 586.592 119.08C586.56 120.264 586.496 120.376 586.304 120.376C586.24 120.376 586.016 120.376 585.952 120.376C585.776 120.376 585.776 120.344 585.776 120.04V118.52H584.464ZM589.2 116.744V118.712H601.456V116.744H589.2ZM600.672 116.744V117.128C600.4 123.032 600.08 125.56 599.52 126.104C599.296 126.312 599.104 126.376 598.784 126.376C598.352 126.376 597.408 126.36 596.384 126.28C596.752 126.84 597.024 127.704 597.056 128.264C598.032 128.312 599.024 128.328 599.632 128.232C600.336 128.136 600.8 127.96 601.264 127.352C601.984 126.504 602.304 124.072 602.624 117.672C602.656 117.4 602.672 116.744 602.672 116.744H600.672ZM594.112 113.448V116.744C594.112 119.832 593.664 124.264 588.688 126.968C589.168 127.304 589.888 128.056 590.192 128.52C595.632 125.448 596.144 120.376 596.144 116.744V113.448H594.112ZM609.76 116.232L608.032 116.616C609.552 122.792 612.192 126.824 618.32 128.44C618.608 127.864 619.216 126.984 619.664 126.568C613.808 125.272 611.024 121.576 609.76 116.232ZM605.344 114.216V116.088H613.936V114.216H605.344ZM616.656 118.024V118.376C615.664 122.872 612.544 125.64 608.448 126.728C608.848 127.144 609.328 127.928 609.568 128.44C614.112 126.952 617.44 124.04 618.688 118.472L617.36 117.944L617.024 118.024H616.656ZM613.504 114.216V114.424C613.248 115.8 612.688 118.312 612.16 120.232L614.176 120.52C614.672 118.616 615.216 116.28 615.568 114.376L614.08 114.136L613.744 114.216H613.504ZM613.824 118.024L613.456 119.832H617.056V118.024H613.824ZM607.904 114.728V117.176C607.904 119.784 607.568 123.816 604.384 126.536C604.816 126.888 605.488 127.688 605.776 128.184C609.456 124.952 609.872 120.296 609.872 117.176V114.728H607.904ZM620.992 120.28V121.944H626.192V120.28H620.992ZM622.208 117.624V119.224H626.272V117.624H622.208ZM622.304 121.256V128.408H624V121.256H622.304ZM625.344 120.28V124.696C625.344 124.824 625.312 124.872 625.168 124.872C625.024 124.888 624.624 124.888 624.192 124.872C624.4 125.32 624.576 125.992 624.608 126.488C625.408 126.488 625.984 126.472 626.448 126.2C626.912 125.928 627.008 125.448 627.008 124.728V120.28H625.344ZM627.152 114.04V115.656H635.328V114.04H627.152ZM629.456 120.456H633.024V121.48H629.456V120.456ZM629.456 122.792H633.024V123.816H629.456V122.792ZM629.456 118.136H633.024V119.144H629.456V118.136ZM627.696 116.728V125.224H634.864V116.728H627.696ZM630.272 114.92C630.224 115.704 630.048 116.792 629.888 117.56L631.552 117.864C631.824 117.176 632.16 116.168 632.464 115.16L630.272 114.92ZM629.264 125.24C628.56 125.928 627.152 126.792 625.904 127.24C626.32 127.56 626.88 128.136 627.184 128.488C628.432 128.008 629.952 127.112 630.832 126.264L629.264 125.24ZM631.584 126.312C632.496 126.952 633.68 127.896 634.24 128.488L635.744 127.416C635.12 126.808 633.904 125.928 633.008 125.352L631.584 126.312ZM623.216 113.416C622.672 114.84 621.664 116.584 620.16 117.896C620.512 118.184 621.008 118.92 621.216 119.352C623.072 117.64 624.16 115.704 624.832 114.296V113.784H624.272V113.416H623.216ZM623.36 113.416V114.872H623.712C624.736 115.672 626.048 117.224 626.64 118.152L627.824 116.456C627.184 115.544 625.792 114.264 624.736 113.416H623.36ZM636.672 123.88V125.336H651.328V123.88H636.672ZM640.816 114.728V116.024H651.312V114.728H640.816ZM646 123.032V126.568C646 126.76 645.936 126.808 645.68 126.808C645.44 126.824 644.544 126.84 643.76 126.792C644 127.256 644.272 127.944 644.352 128.44C645.552 128.44 646.416 128.424 647.04 128.184C647.696 127.928 647.856 127.48 647.856 126.616V123.032H646ZM639.392 126.04C640.144 126.584 641.104 127.4 641.504 127.944L642.912 126.76C642.432 126.216 641.456 125.464 640.688 124.968L639.392 126.04ZM637.12 114.632C637.92 115.24 638.88 116.12 639.296 116.728L640.608 115.56C640.16 114.952 639.168 114.136 638.368 113.592L637.12 114.632ZM642.656 113.688C642.96 114.184 643.28 114.872 643.408 115.304L645.056 114.968C644.912 114.52 644.56 113.864 644.224 113.4L642.656 113.688ZM643.856 118.664H648.144V119.16H643.856V118.664ZM643.856 119.976H648.144V120.472H643.856V119.976ZM643.856 117.368H648.144V117.848H643.856V117.368ZM642.08 116.52V121.32H650V116.52H642.08ZM640.336 117.384H636.736V118.84H638.592V121.144H640.336V117.384ZM645.072 115.256C645.04 115.656 644.928 116.248 644.816 116.712L646.336 116.904C646.512 116.504 646.736 115.992 646.976 115.384L645.072 115.256ZM647.84 113.368C647.664 113.816 647.328 114.44 647.056 114.904L648.576 115.208C648.88 114.808 649.264 114.296 649.648 113.672L647.84 113.368ZM640.336 120.504H639.056C638.256 120.984 637.344 121.464 636.592 121.816L637.264 123.336C638.144 122.776 638.944 122.28 639.696 121.752C640.496 122.76 641.568 123.128 643.2 123.192C645.168 123.256 649.04 123.24 651.088 123.144C651.168 122.712 651.392 122.024 651.552 121.672C649.328 121.832 645.136 121.88 643.184 121.8C641.824 121.752 640.848 121.384 640.336 120.504ZM659.072 114.84V116.584H666.784V114.84H659.072ZM658.112 117.944V119.72H667.488V117.944H658.112ZM658.464 121.16V122.936H667.328V121.16H658.464ZM661.92 113.4V118.92H663.824V113.4H661.92ZM663.824 119.528V126.264C663.824 126.488 663.744 126.536 663.488 126.536C663.216 126.552 662.336 126.552 661.552 126.52C661.808 127.048 662.064 127.864 662.128 128.424C663.344 128.424 664.256 128.376 664.896 128.088C665.536 127.8 665.728 127.272 665.728 126.296V119.528H663.824ZM659.024 123.8C659.712 124.568 660.528 125.624 660.864 126.328L662.384 125.336C662 124.632 661.152 123.624 660.448 122.92L659.024 123.8ZM652.416 121.944L652.88 123.784C654.576 123.288 656.768 122.632 658.784 121.992L658.528 120.312C656.32 120.936 653.984 121.592 652.416 121.944ZM655.296 113.416V128.44H657.056V113.416H655.296ZM653.184 114.248C653.04 116.136 652.768 118.136 652.256 119.432C652.64 119.624 653.328 120.056 653.616 120.296C654.192 118.856 654.576 116.632 654.784 114.52L653.184 114.248ZM653.616 116.44L653.264 118.264H658.384V116.44H653.616ZM674.448 113.432C673.488 113.736 671.84 114.008 670.4 114.152C670.576 114.472 670.768 115 670.816 115.32C672.384 115.208 674.256 114.968 675.616 114.552L674.448 113.432ZM681.392 113.432C680.336 113.752 678.528 114.024 676.96 114.168C677.12 114.488 677.312 115 677.376 115.336C679.072 115.224 681.088 114.984 682.56 114.568L681.392 113.432ZM669.872 113.768V115.24C669.872 116.296 669.696 117.608 668.512 118.68C668.896 118.904 669.504 119.496 669.76 119.88C671.232 118.52 671.536 116.584 671.536 115.32V114.552C671.808 114.488 671.904 114.424 671.92 114.28L669.872 113.768ZM676.496 113.784V115.256C676.496 116.168 676.272 117.16 674.944 117.992C675.328 118.248 675.888 118.872 676.112 119.272C677.808 118.152 678.16 116.488 678.16 115.336V114.52C678.432 114.488 678.528 114.408 678.544 114.264L676.496 113.784ZM670.624 115.8V117.208H675.936V115.8H670.624ZM677.216 115.8V117.208H683.2V115.8H677.216ZM672.736 116.28V118.872H674.432V116.28H672.736ZM679.456 116.28V118.888H681.168V116.28H679.456ZM672.576 122.104H679.552V122.792H672.576V122.104ZM672.576 123.88H679.552V124.584H672.576V123.88ZM672.576 120.328H679.552V121.016H672.576V120.328ZM670.72 119.176V125.736H681.488V119.176H670.72ZM676.896 126.568C678.512 127.176 680.16 127.944 681.056 128.488L683.296 127.624C682.16 127.064 680.176 126.264 678.496 125.656L676.896 126.568ZM673.344 125.608C672.256 126.216 670.352 126.776 668.656 127.096C669.088 127.416 669.744 128.12 670.08 128.504C671.712 128.04 673.792 127.24 675.104 126.392L673.344 125.608ZM687.088 123.048C685.664 123.048 684.496 124.2 684.496 125.624C684.496 127.064 685.664 128.216 687.088 128.216C688.528 128.216 689.68 127.064 689.68 125.624C689.68 124.2 688.528 123.048 687.088 123.048ZM687.088 127.064C686.304 127.064 685.648 126.424 685.648 125.624C685.648 124.84 686.304 124.2 687.088 124.2C687.888 124.2 688.528 124.84 688.528 125.624C688.528 126.424 687.888 127.064 687.088 127.064Z" fill="#4B4B4B"/>
</svg>
