<svg width="24" height="24" viewBox="0 0 24 24" fill="none" xmlns="http://www.w3.org/2000/svg">
<path d="M20.5 15C20.5 15.9569 20.4989 16.6244 20.4312 17.1279C20.3655 17.6171 20.2452 17.8762 20.0607 18.0607C19.8762 18.2452 19.6171 18.3655 19.1279 18.4312C18.6244 18.4989 17.9569 18.5 17 18.5L7 18.5C6.04306 18.5 5.37565 18.4989 4.87208 18.4312C4.3829 18.3655 4.12385 18.2452 3.93934 18.0607C3.75483 17.8761 3.63453 17.6171 3.56877 17.1279C3.50106 16.6244 3.5 15.9569 3.5 15L3.5 6.5L20.5 6.5L20.5 15Z" fill="#0088CC" fill-opacity="0.25" stroke="#0088CC"/>
<path d="M20.3333 6.5C20.9777 6.5 21.5 5.97767 21.5 5.33333C21.5 4.32081 20.6792 3.5 19.6667 3.5L4.33333 3.5C3.32081 3.5 2.5 4.32081 2.5 5.33333C2.5 5.97766 3.02233 6.5 3.66667 6.5L20.3333 6.5Z" fill="#0088CC" fill-opacity="0.25" stroke="#0088CC"/>
</svg>
