<svg width="24" height="24" viewBox="0 0 24 24" fill="none" xmlns="http://www.w3.org/2000/svg">
<path d="M9.22836 7.14805C9.0776 6.78407 9 6.39397 9 6C9 5.60603 9.0776 5.21593 9.22836 4.85195C9.37912 4.48797 9.6001 4.15726 9.87868 3.87868C10.1573 3.6001 10.488 3.37913 10.8519 3.22836C11.2159 3.0776 11.606 3 12 3C12.394 3 12.7841 3.0776 13.148 3.22836C13.512 3.37912 13.8427 3.6001 14.1213 3.87868C14.3999 4.15725 14.6209 4.48797 14.7716 4.85195C14.9224 5.21593 15 5.60603 15 6C15 6.39396 14.9224 6.78407 14.7716 7.14805C14.6209 7.51203 14.3999 7.84274 14.1213 8.12132C13.8427 8.3999 13.512 8.62087 13.1481 8.77164C12.7841 8.9224 12.394 9 12 9C11.606 9 11.2159 8.9224 10.852 8.77164C10.488 8.62087 10.1573 8.3999 9.87868 8.12132C9.6001 7.84274 9.37913 7.51203 9.22836 7.14805Z" fill="#0088CC" fill-opacity="0.25" stroke="#0088CC"/>
<path d="M3.55793 14.6733C3.79776 14.3607 4.0968 14.0985 4.43799 13.9015C4.77917 13.7045 5.15581 13.5767 5.54641 13.5252C5.937 13.4738 6.3339 13.4998 6.71444 13.6018C7.09499 13.7038 7.45172 13.8797 7.76427 14.1195C8.07683 14.3594 8.33908 14.6584 8.53606 14.9996C8.73305 15.3408 8.8609 15.7174 8.91232 16.108C8.96375 16.4986 8.93773 16.8955 8.83577 17.276C8.7338 17.6566 8.55788 18.0133 8.31805 18.3259C8.07822 18.6384 7.77917 18.9007 7.43799 19.0977C7.09681 19.2946 6.72016 19.4225 6.32957 19.4739C5.93897 19.5253 5.54207 19.4993 5.16153 19.3974C4.78099 19.2954 4.42426 19.1195 4.1117 18.8796C3.79915 18.6398 3.5369 18.3408 3.33991 17.9996C3.14293 17.6584 3.01508 17.2818 2.96365 16.8912C2.91223 16.5006 2.93825 16.1037 3.04021 15.7231C3.14218 15.3426 3.3181 14.9859 3.55793 14.6733Z" fill="#0088CC" fill-opacity="0.25" stroke="#0088CC"/>
<path d="M20.4421 14.6733C20.2022 14.3607 19.9032 14.0985 19.562 13.9015C19.2208 13.7045 18.8442 13.5767 18.4536 13.5252C18.063 13.4738 17.6661 13.4998 17.2856 13.6018C16.905 13.7038 16.5483 13.8797 16.2357 14.1195C15.9232 14.3594 15.6609 14.6584 15.4639 14.9996C15.267 15.3408 15.1391 15.7174 15.0877 16.108C15.0363 16.4986 15.0623 16.8955 15.1642 17.276C15.2662 17.6566 15.4421 18.0133 15.682 18.3259C15.9218 18.6384 16.2208 18.9007 16.562 19.0977C16.9032 19.2946 17.2798 19.4225 17.6704 19.4739C18.061 19.5253 18.4579 19.4993 18.8385 19.3974C19.219 19.2954 19.5757 19.1195 19.8883 18.8796C20.2008 18.6398 20.4631 18.3408 20.6601 17.9996C20.8571 17.6584 20.9849 17.2818 21.0363 16.8912C21.0878 16.5006 21.0618 16.1037 20.9598 15.7231C20.8578 15.3426 20.6819 14.9859 20.4421 14.6733Z" fill="#0088CC" fill-opacity="0.25" stroke="#0088CC"/>
<path fill-rule="evenodd" clip-rule="evenodd" d="M9.00254 6.12533C9.0008 6.08371 8.99993 6.04203 8.99993 6.0003C8.99993 5.65293 9.06026 5.30857 9.17787 4.98247C9.03301 5.03346 8.8894 5.08842 8.74719 5.14733C7.71592 5.57449 6.77889 6.2006 5.98959 6.9899C5.20029 7.77919 4.57419 8.71623 4.14702 9.7475C3.71986 10.7788 3.5 11.8841 3.5 13.0003C3.5 13.5264 3.54885 14.0502 3.64523 14.5648C3.86884 14.2999 4.13691 14.0755 4.43774 13.9018C4.47388 13.8809 4.51042 13.8608 4.54733 13.8415C4.51586 13.5628 4.5 13.2819 4.5 13.0003C4.5 12.0154 4.69399 11.0401 5.0709 10.1302C5.44781 9.22024 6.00026 8.39344 6.6967 7.697C7.36051 7.03319 8.14275 6.50019 9.00254 6.12533ZM14.9973 6.12527C15.8572 6.50014 16.6395 7.03315 17.3033 7.697C17.9997 8.39344 18.5522 9.22023 18.9291 10.1302C19.306 11.0401 19.5 12.0154 19.5 13.0003C19.5 13.282 19.4841 13.5628 19.4527 13.8416C19.4895 13.8609 19.526 13.881 19.5621 13.9018C19.863 14.0755 20.1311 14.3 20.3547 14.565C20.4511 14.0503 20.5 13.5265 20.5 13.0003C20.5 11.8841 20.2801 10.7788 19.853 9.74749C19.4258 8.71622 18.7997 7.77919 18.0104 6.98989C17.2211 6.20059 16.2841 5.57449 15.2528 5.14732C15.1105 5.0884 14.9669 5.03342 14.822 4.98242C14.9396 5.30853 14.9999 5.65292 14.9999 6.0003C14.9999 6.04201 14.9991 6.08367 14.9973 6.12527ZM17.533 19.4529C17.1916 19.3917 16.8631 19.2717 16.5621 19.098C16.5261 19.0772 16.4906 19.0556 16.4555 19.0334C15.9665 19.3945 15.4343 19.6957 14.8701 19.9294C13.9602 20.3063 12.9849 20.5003 12 20.5003C11.0151 20.5003 10.0398 20.3063 9.12988 19.9294C8.56568 19.6957 8.03345 19.3945 7.54443 19.0334C7.50935 19.0556 7.47378 19.0771 7.43775 19.098C7.13681 19.2717 6.80829 19.3917 6.46694 19.4528C7.14728 20.0362 7.91668 20.5093 8.74719 20.8533C9.77846 21.2804 10.8838 21.5003 12 21.5003C13.1162 21.5003 14.2215 21.2804 15.2528 20.8533C16.0833 20.5093 16.8527 20.0362 17.533 19.4529Z" fill="#0088CC"/>
</svg>
