<svg width="40" height="40" viewBox="0 0 40 40" fill="none" xmlns="http://www.w3.org/2000/svg">
<path d="M8 11.6667C8 10.7462 8.67157 10 9.5 10H30.5C31.3284 10 32 10.7462 32 11.6667C32 12.5871 31.3284 13.3333 30.5 13.3333H9.5C8.67157 13.3333 8 12.5871 8 11.6667ZM8 20C8 19.0795 8.67157 18.3333 9.5 18.3333H30.5C31.3284 18.3333 32 19.0795 32 20C32 20.9205 31.3284 21.6667 30.5 21.6667H9.5C8.67157 21.6667 8 20.9205 8 20ZM8 28.3333C8 27.4129 8.67157 26.6667 9.5 26.6667H30.5C31.3284 26.6667 32 27.4129 32 28.3333C32 29.2538 31.3284 30 30.5 30H9.5C8.67157 30 8 29.2538 8 28.3333Z" fill="#0088CC"/>
</svg>
