<svg width="21" height="40" viewBox="0 0 21 40" fill="none" xmlns="http://www.w3.org/2000/svg">
<path d="M10.24 39.72C7.392 39.72 5.232 39.224 3.76 38.232C2.32 37.208 1.344 35.784 0.832 33.96C0.32 32.136 0.0640001 30.024 0.0640001 27.624H7.792C7.792 29.096 7.872 30.296 8.032 31.224C8.192 32.152 8.48 32.824 8.896 33.24C9.344 33.624 9.968 33.8 10.768 33.768C11.6 33.736 12.192 33.4 12.544 32.76C12.896 32.12 13.104 31.208 13.168 30.024C13.264 28.808 13.312 27.352 13.312 25.656C13.312 24.376 13.232 23.24 13.072 22.248C12.944 21.256 12.656 20.472 12.208 19.896C11.792 19.288 11.152 18.984 10.288 18.984C9.488 18.984 8.832 19.272 8.32 19.848C7.808 20.424 7.44 21.32 7.216 22.536H0.304L1.024 0.119997H19.168V6.84H7.456L7.024 14.856C7.344 14.408 7.952 14.024 8.848 13.704C9.744 13.352 10.704 13.128 11.728 13.032C13.712 12.808 15.376 13.176 16.72 14.136C18.096 15.064 19.12 16.488 19.792 18.408C20.496 20.328 20.848 22.68 20.848 25.464C20.848 27.544 20.72 29.464 20.464 31.224C20.208 32.952 19.712 34.456 18.976 35.736C18.24 36.984 17.168 37.96 15.76 38.664C14.352 39.368 12.512 39.72 10.24 39.72Z" fill="#6F6F6F"/>
</svg>
