<svg width="23" height="41" viewBox="0 0 23 41" fill="none" xmlns="http://www.w3.org/2000/svg">
<path d="M11.528 40.72C8.808 40.72 6.664 40.208 5.096 39.184C3.56 38.16 2.456 36.736 1.784 34.912C1.144 33.056 0.824 30.928 0.824 28.528V27.136H8.84C8.84 27.168 8.84 27.344 8.84 27.664C8.84 27.984 8.84 28.272 8.84 28.528C8.84 29.808 8.92 30.848 9.08 31.648C9.24 32.448 9.528 33.04 9.944 33.424C10.36 33.776 10.936 33.952 11.672 33.952C12.408 33.952 12.952 33.76 13.304 33.376C13.688 32.992 13.944 32.416 14.072 31.648C14.2 30.88 14.264 29.92 14.264 28.768C14.264 26.848 13.992 25.392 13.448 24.4C12.936 23.376 11.848 22.848 10.184 22.816C10.152 22.816 9.976 22.816 9.656 22.816C9.336 22.816 9.016 22.816 8.696 22.816V17.296C8.92 17.296 9.144 17.296 9.368 17.296C9.592 17.296 9.8 17.296 9.992 17.296C11.688 17.296 12.824 16.832 13.4 15.904C13.976 14.976 14.264 13.536 14.264 11.584C14.264 10.08 14.056 8.928 13.64 8.128C13.256 7.328 12.52 6.928 11.432 6.928C10.376 6.928 9.672 7.376 9.32 8.272C9 9.168 8.84 10.32 8.84 11.728C8.84 12.048 8.84 12.384 8.84 12.736C8.84 13.056 8.84 13.392 8.84 13.744H0.824V11.392C0.824 9.056 1.24 7.088 2.072 5.488C2.936 3.856 4.152 2.624 5.72 1.792C7.32 0.959998 9.224 0.543999 11.432 0.543999C13.672 0.543999 15.592 0.943998 17.192 1.744C18.792 2.544 20.024 3.728 20.888 5.296C21.752 6.832 22.184 8.752 22.184 11.056C22.184 13.328 21.72 15.232 20.792 16.768C19.864 18.304 18.744 19.248 17.432 19.6C18.328 19.92 19.128 20.432 19.832 21.136C20.568 21.84 21.144 22.8 21.56 24.016C21.976 25.2 22.184 26.72 22.184 28.576C22.184 30.944 21.832 33.04 21.128 34.864C20.456 36.688 19.336 38.128 17.768 39.184C16.2 40.208 14.12 40.72 11.528 40.72Z" fill="#6F6F6F"/>
</svg>
