<svg width="23" height="40" viewBox="0 0 23 40" fill="none" xmlns="http://www.w3.org/2000/svg">
<path d="M0.968 40V34.336L10.28 20.032C10.984 18.976 11.64 17.952 12.248 16.96C12.888 15.968 13.4 14.96 13.784 13.936C14.2 12.912 14.408 11.84 14.408 10.72C14.408 9.6 14.184 8.768 13.736 8.224C13.288 7.68 12.68 7.408 11.912 7.408C11.048 7.408 10.376 7.648 9.896 8.128C9.416 8.608 9.08 9.248 8.888 10.048C8.728 10.848 8.648 11.744 8.648 12.736V14.656H0.872V12.592C0.872 10.288 1.24 8.24 1.976 6.448C2.712 4.624 3.88 3.2 5.48 2.176C7.08 1.12 9.176 0.591998 11.768 0.591998C15.256 0.591998 17.88 1.504 19.64 3.328C21.432 5.12 22.328 7.632 22.328 10.864C22.328 12.432 22.072 13.888 21.56 15.232C21.08 16.576 20.424 17.888 19.592 19.168C18.792 20.416 17.928 21.728 17 23.104L9.896 33.712H21.272V40H0.968Z" fill="#6F6F6F"/>
</svg>
