<svg width="22" height="41" viewBox="0 0 22 41" fill="none" xmlns="http://www.w3.org/2000/svg">
<path d="M11.248 40.576C8.72 40.576 6.656 40.032 5.056 38.944C3.488 37.824 2.336 36.304 1.6 34.384C0.864 32.464 0.496 30.272 0.496 27.808V13.744C0.496 11.216 0.784 8.96 1.36 6.976C1.968 4.992 3.04 3.44 4.576 2.32C6.112 1.168 8.32 0.591998 11.2 0.591998C13.696 0.591998 15.664 0.975998 17.104 1.744C18.544 2.512 19.568 3.632 20.176 5.104C20.784 6.576 21.088 8.4 21.088 10.576C21.088 10.704 21.088 10.832 21.088 10.96C21.12 11.056 21.136 11.152 21.136 11.248H13.6C13.6 9.68 13.472 8.528 13.216 7.792C12.992 7.024 12.336 6.64 11.248 6.64C10.512 6.64 9.952 6.864 9.568 7.312C9.216 7.76 8.976 8.544 8.848 9.664C8.72 10.784 8.656 12.352 8.656 14.368V17.824C9.04 17.152 9.664 16.64 10.528 16.288C11.392 15.904 12.368 15.696 13.456 15.664C15.504 15.6 17.136 16.064 18.352 17.056C19.6 18.048 20.496 19.408 21.04 21.136C21.584 22.832 21.856 24.736 21.856 26.848C21.856 29.568 21.536 31.968 20.896 34.048C20.256 36.096 19.168 37.696 17.632 38.848C16.096 40 13.968 40.576 11.248 40.576ZM11.344 34.672C12.08 34.672 12.608 34.432 12.928 33.952C13.28 33.44 13.504 32.704 13.6 31.744C13.728 30.752 13.792 29.536 13.792 28.096C13.792 26.816 13.744 25.712 13.648 24.784C13.584 23.856 13.376 23.136 13.024 22.624C12.672 22.08 12.08 21.808 11.248 21.808C10.864 21.808 10.496 21.888 10.144 22.048C9.792 22.208 9.488 22.416 9.232 22.672C8.976 22.896 8.784 23.12 8.656 23.344V29.68C8.656 30.544 8.72 31.36 8.848 32.128C9.008 32.896 9.28 33.52 9.664 34C10.08 34.448 10.64 34.672 11.344 34.672Z" fill="#6F6F6F"/>
</svg>
