<svg width="40" height="32" viewBox="0 0 40 32" fill="none" xmlns="http://www.w3.org/2000/svg">
<path d="M25.5155 0H40V10.6141C40 14.8878 39.622 18.2507 38.866 20.7028C38.1443 23.1549 36.7698 25.3793 34.7423 27.376C32.7491 29.3377 30.2234 30.879 27.1649 32L24.3299 25.8522C27.2165 24.8714 29.2783 23.5052 30.5155 21.7537C31.7869 20.0022 32.4399 17.6727 32.4742 14.7652H25.5155V0ZM1.18557 0H15.6701V10.6141C15.6701 14.8878 15.3093 18.2507 14.5876 20.7028C13.866 23.1549 12.4914 25.3793 10.4639 27.376C8.47079 29.3377 5.92783 30.879 2.83505 32L0 25.8522C2.92096 24.8714 5 23.5052 6.23711 21.7537C7.47423 20.0022 8.12715 17.6727 8.19588 14.7652H1.18557V0Z" fill="#0088CC"/>
</svg>
