<svg width="118" height="34" viewBox="0 0 118 34" fill="none" xmlns="http://www.w3.org/2000/svg">
<path d="M30.7701 0.119606L0 34H7.8595L10.2943 31.3125C13.1227 28.4826 19.842 24.4976 30.1526 22.1381H18.655L30.3401 10.3786L30.1526 22.1381V34H33.9625V0.119606H30.7701Z" fill="white"/>
<path d="M44.5104 20.3913C43.5607 19.3543 41.4934 18.0871 38.0301 20.6855L41.5136 16.169L38.0301 11.2611V20.6855V30.1181L35.1138 33.8996V-1.14441e-05L48.3922 17.06L46.4064 19.6341L45.139 21.277L44.5104 20.3913Z" fill="white"/>
<path d="M62.9848 12.2943H61.4233V1.25882H62.9848V12.2943ZM61.7839 15.7767L61.406 14.1902C62.2296 14.242 63.019 14.2769 63.7737 14.2769C64.1857 14.2769 64.3912 14.0698 64.3912 13.6558V0.103827H66.0042V14.0698C66.0042 15.208 65.4382 15.7767 64.3403 15.7767H61.7839ZM58.4202 12.3286H55.1948V14.0006H58.4202V12.3286ZM58.0255 2.93146C57.2881 2.36209 56.6527 1.91369 56.1381 1.58684C55.7434 2.03466 55.3146 2.48306 54.8342 2.93146H58.0255ZM58.2147 6.15573H53.9765V6.9833H58.2147V6.15573ZM53.9759 8.19008C53.9759 8.43143 53.9591 8.65592 53.9591 8.89728H58.2147V8.05224H53.9759V8.19008ZM59.9475 15.8809H58.4202V15.2772H55.1948V15.8977H53.719V11.1387C53.3925 12.9317 52.8097 14.5357 51.9688 15.9146L50.699 14.777C51.8143 13.0701 52.3803 10.8799 52.3976 8.19008V4.96581H59.7762V10.0692H53.8735C53.8388 10.4146 53.7872 10.742 53.7357 11.0526H59.9475V15.8809ZM56.4813 0.103827C57.8368 0.931413 59.2958 1.96603 60.8741 3.1728L59.9302 4.43133C59.3294 3.94862 58.7807 3.50082 58.283 3.12105V4.13824H54.1993V3.50082C53.4273 4.13823 52.5695 4.77621 51.6256 5.4142L50.6816 4.08645C52.6031 2.87967 54.2161 1.55196 55.5033 0.103827H56.4813Z" fill="white"/>
<path d="M83.1817 14.5698L82.015 15.7428C81.1573 14.8972 79.9731 14.0004 78.429 13.035L79.476 12.0178C80.9512 12.8803 82.1869 13.7254 83.1817 14.5698ZM73.4529 3.9659C73.7446 4.43116 74.0195 4.94877 74.2764 5.535H77.3994C77.76 5.01739 78.0684 4.50037 78.3434 3.9659H73.4529ZM73.4529 12.9489C72.4065 14.0185 71.102 14.949 69.5578 15.7428L68.5456 14.432C70.0556 13.7422 71.3422 12.9146 72.3718 11.9835L73.4529 12.9489ZM75.1347 0.0344353V2.53464H76.5591V0.0344353H78.1373V2.53464H79.3382C79.8018 1.81057 80.1965 1.06906 80.5397 0.27579L82.0497 0.844572C81.6891 1.48256 81.3292 2.05193 80.9686 2.53464H83.4219V3.9659H78.635L79.9563 4.43116C79.7162 4.8278 79.476 5.19012 79.2011 5.535H82.6331V6.96626H76.713V7.91481H81.8263V9.27629H76.713V10.2248H83.4051V11.6735H76.713V16.0011H75.0659V11.6735H68.3737V10.2248H75.0659V9.27629H69.9526V7.91481H75.0659V6.96626H69.1458V5.535H72.5778C72.355 5.12091 72.0974 4.74172 71.8231 4.37998L72.9384 3.9659H68.3569V2.53464H70.7935C70.5186 1.93154 70.1754 1.37904 69.798 0.862601L71.3254 0.293237C71.7027 0.914362 72.0459 1.67216 72.3718 2.53464H73.5559V0.0344353H75.1347Z" fill="white"/>
<path d="M90.1327 13.8803H97.047V12.3286H90.1327V13.8803ZM97.047 9.43178H90.1327V10.9148H97.047V9.43178ZM91.4881 1.68981V0.000308037H93.1346V1.68981H96.944V3.22458H93.1346V4.89722H95.1597C96.7733 3.75907 98.1455 2.48308 99.2781 1.10358L100.496 2.0178C99.6208 3.08674 98.6948 4.03474 97.6993 4.89722H100.788V6.44885H95.6574C95.4514 6.58668 95.246 6.70707 95.0393 6.84549C94.405 7.22468 93.6845 7.62073 92.8609 8.01794H98.678V15.9838H97.047V15.3284H90.1327V15.9838H88.4849V9.88017C87.6272 10.1902 86.7348 10.5181 85.8082 10.8456L85.1392 9.32823C87.8159 8.70769 90.3381 7.75914 92.6722 6.44885H85.3961V4.89722H91.4881V3.22458H86.8204V1.68981H91.4881Z" fill="white"/>
<path d="M66.4846 32.4988L65.1806 33.8091C64.0133 32.5331 62.3835 31.1711 60.2902 29.6881L61.4743 28.5331C63.4478 29.8777 65.1118 31.188 66.4846 32.4988ZM60.9592 22.8423H56.4982V26.5842H60.9592V22.8423ZM54.8684 21.2564V17.8425H56.4982V21.2564H60.9592V17.9117H62.5901V21.2564H65.5921V22.8423H62.5901V26.5842H66.4331V28.1882H51.0243V26.5842H54.8684V22.8423H51.8826V21.2564H54.8684ZM57.3732 29.6194C55.9489 31.2228 54.1988 32.6192 52.1228 33.826L50.9907 32.343C53.032 31.2397 54.748 29.9643 56.1376 28.4982L57.3732 29.6194Z" fill="white"/>
<path d="M80.1445 30.1539H78.583V19.1185H80.1445V30.1539ZM78.9436 33.6364L78.5662 32.0499C79.3892 32.1016 80.1792 32.1365 80.9333 32.1365C81.3454 32.1365 81.5514 31.9295 81.5514 31.5154V17.9635H83.1644V31.9295C83.1644 33.0676 82.5978 33.6364 81.4999 33.6364H78.9436ZM75.5798 30.1882H72.3544V31.8603H75.5798V30.1882ZM75.1857 20.7911C74.4478 20.2217 73.8129 19.7734 73.2978 19.4459C72.9031 19.8943 72.4742 20.3427 71.9939 20.7911H75.1857ZM75.3744 24.0154H71.1362V24.8429H75.3744V24.0154ZM71.1362 26.0497C71.1362 26.2911 71.1188 26.5156 71.1188 26.7569H75.3744V25.9119H71.1362V26.0497ZM77.1072 33.7405H75.5798V33.1369H72.3544V33.7574H70.8786V28.9983C70.5528 30.7913 69.9694 32.3953 69.1285 33.7742L67.8592 32.6367C68.9739 30.9297 69.5405 28.7395 69.5573 26.0497V22.8255H76.9359V27.9288H71.0331C70.9984 28.2743 70.9469 28.6017 70.896 28.9123H77.1072V33.7405ZM73.6416 17.9635C74.997 18.7911 76.4555 19.8257 78.0343 21.0324L77.0904 22.291C76.4896 21.8083 75.9404 21.3605 75.4427 20.9807V21.9979H71.359V21.3605C70.5869 21.9979 69.7292 22.6359 68.7852 23.2739L67.8413 21.9461C69.7634 20.7394 71.3763 19.4116 72.6629 17.9635H73.6416Z" fill="white"/>
<path d="M99.2438 21.6016C98.7466 22.9287 98.0944 24.2222 97.305 25.4981L95.8297 24.7398C96.6359 23.4295 97.2708 22.1529 97.7512 20.8944L99.2438 21.6016ZM90.287 24.8258L88.7602 25.5848C88.1936 24.1355 87.5929 22.8427 86.958 21.7051L88.4853 20.963C89.1034 22.136 89.7042 23.4114 90.287 24.8258ZM100.051 18.5495V20.1529H93.8052V26.2571H100.703V27.8256H93.8052V33.792H92.1575V27.8256H85.3965V26.2571H92.1575V20.1529H86.0835V18.5495H100.051Z" fill="white"/>
<path d="M114.431 28.0672H105.988V31.5503H114.431V28.0672ZM116.078 33.826H114.431V33.1194H105.988V33.826H104.342V26.4981H116.078V33.826ZM102.917 23.343C104.221 23.0499 106.023 21.2046 108.322 17.825L110.021 18.4113C108.632 20.3427 107.224 21.9635 105.783 23.2738C108.7 23.1703 111.514 22.9807 114.242 22.7219C113.693 21.8943 113.127 21.136 112.561 20.4119L114.037 19.7047C115.426 21.4291 116.747 23.3256 118 25.4117L116.404 26.2056C115.993 25.4803 115.598 24.808 115.203 24.1706C111.617 24.4812 107.619 24.7226 103.226 24.8947L102.917 23.343Z" fill="white"/>
</svg>
